<svg width="1363" height="163" viewBox="0 0 1363 163" fill="none" xmlns="http://www.w3.org/2000/svg">
<path d="M0 15C0 6.71573 6.71573 0 15 0H37V163H15C6.71573 163 0 156.284 0 148V15Z" fill="#424242"/>
<rect width="1097" height="163" transform="translate(37)" fill="#F0F0F0"/>
<path d="M101.906 53.9219L94.3945 51.2383V48.0859L104.602 52.375V54.6367L101.906 53.9219ZM94.3945 56.1719L101.918 53.4297L104.602 52.7852V55.0352L94.3945 59.3242V56.1719ZM126.422 52.082V58.8438C126.156 59.1641 125.746 59.5117 125.191 59.8867C124.637 60.2539 123.922 60.5703 123.047 60.8359C122.172 61.1016 121.113 61.2344 119.871 61.2344C118.77 61.2344 117.766 61.0547 116.859 60.6953C115.953 60.3281 115.172 59.793 114.516 59.0898C113.867 58.3867 113.367 57.5273 113.016 56.5117C112.664 55.4883 112.488 54.3203 112.488 53.0078V51.9414C112.488 50.6289 112.656 49.4609 112.992 48.4375C113.336 47.4141 113.824 46.5508 114.457 45.8477C115.09 45.1445 115.844 44.6094 116.719 44.2422C117.594 43.875 118.566 43.6914 119.637 43.6914C121.121 43.6914 122.34 43.9336 123.293 44.418C124.246 44.8945 124.973 45.5586 125.473 46.4102C125.98 47.2539 126.293 48.2227 126.41 49.3164H123C122.914 48.7383 122.75 48.2344 122.508 47.8047C122.266 47.375 121.918 47.0391 121.465 46.7969C121.02 46.5547 120.441 46.4336 119.73 46.4336C119.145 46.4336 118.621 46.5547 118.16 46.7969C117.707 47.0312 117.324 47.3789 117.012 47.8398C116.699 48.3008 116.461 48.8711 116.297 49.5508C116.133 50.2305 116.051 51.0195 116.051 51.918V53.0078C116.051 53.8984 116.137 54.6875 116.309 55.375C116.48 56.0547 116.734 56.6289 117.07 57.0977C117.414 57.5586 117.836 57.9062 118.336 58.1406C118.836 58.375 119.418 58.4922 120.082 58.4922C120.637 58.4922 121.098 58.4453 121.465 58.3516C121.84 58.2578 122.141 58.1445 122.367 58.0117C122.602 57.8711 122.781 57.7383 122.906 57.6133V54.5898H119.695V52.082H126.422ZM136.547 57.9648V48.3203H139.922V61H136.746L136.547 57.9648ZM136.922 55.3633L137.918 55.3398C137.918 56.1836 137.82 56.9688 137.625 57.6953C137.43 58.4141 137.137 59.0391 136.746 59.5703C136.355 60.0938 135.863 60.5039 135.27 60.8008C134.676 61.0898 133.977 61.2344 133.172 61.2344C132.555 61.2344 131.984 61.1484 131.461 60.9766C130.945 60.7969 130.5 60.5195 130.125 60.1445C129.758 59.7617 129.469 59.2734 129.258 58.6797C129.055 58.0781 128.953 57.3555 128.953 56.5117V48.3203H132.328V56.5352C132.328 56.9102 132.371 57.2266 132.457 57.4844C132.551 57.7422 132.68 57.9531 132.844 58.1172C133.008 58.2812 133.199 58.3984 133.418 58.4688C133.645 58.5391 133.895 58.5742 134.168 58.5742C134.863 58.5742 135.41 58.4336 135.809 58.1523C136.215 57.8711 136.5 57.4883 136.664 57.0039C136.836 56.5117 136.922 55.9648 136.922 55.3633ZM149.344 58.1406V52.4922C149.344 52.0859 149.277 51.7383 149.145 51.4492C149.012 51.1523 148.805 50.9219 148.523 50.7578C148.25 50.5938 147.895 50.5117 147.457 50.5117C147.082 50.5117 146.758 50.5781 146.484 50.7109C146.211 50.8359 146 51.0195 145.852 51.2617C145.703 51.4961 145.629 51.7734 145.629 52.0938H142.254C142.254 51.5547 142.379 51.043 142.629 50.5586C142.879 50.0742 143.242 49.6484 143.719 49.2812C144.195 48.9062 144.762 48.6133 145.418 48.4023C146.082 48.1914 146.824 48.0859 147.645 48.0859C148.629 48.0859 149.504 48.25 150.27 48.5781C151.035 48.9062 151.637 49.3984 152.074 50.0547C152.52 50.7109 152.742 51.5312 152.742 52.5156V57.9414C152.742 58.6367 152.785 59.207 152.871 59.6523C152.957 60.0898 153.082 60.4727 153.246 60.8008V61H149.836C149.672 60.6562 149.547 60.2266 149.461 59.7109C149.383 59.1875 149.344 58.6641 149.344 58.1406ZM149.789 53.2773L149.812 55.1875H147.926C147.48 55.1875 147.094 55.2383 146.766 55.3398C146.438 55.4414 146.168 55.5859 145.957 55.7734C145.746 55.9531 145.59 56.1641 145.488 56.4062C145.395 56.6484 145.348 56.9141 145.348 57.2031C145.348 57.4922 145.414 57.7539 145.547 57.9883C145.68 58.2148 145.871 58.3945 146.121 58.5273C146.371 58.6523 146.664 58.7148 147 58.7148C147.508 58.7148 147.949 58.6133 148.324 58.4102C148.699 58.207 148.988 57.957 149.191 57.6602C149.402 57.3633 149.512 57.082 149.52 56.8164L150.41 58.2461C150.285 58.5664 150.113 58.8984 149.895 59.2422C149.684 59.5859 149.414 59.9102 149.086 60.2148C148.758 60.5117 148.363 60.7578 147.902 60.9531C147.441 61.1406 146.895 61.2344 146.262 61.2344C145.457 61.2344 144.727 61.0742 144.07 60.7539C143.422 60.4258 142.906 59.9766 142.523 59.4062C142.148 58.8281 141.961 58.1719 141.961 57.4375C141.961 56.7734 142.086 56.1836 142.336 55.668C142.586 55.1523 142.953 54.7188 143.438 54.3672C143.93 54.0078 144.543 53.7383 145.277 53.5586C146.012 53.3711 146.863 53.2773 147.832 53.2773H149.789ZM158.719 51.0859V61H155.344V48.3203H158.52L158.719 51.0859ZM162.539 48.2383L162.48 51.3672C162.316 51.3438 162.117 51.3242 161.883 51.3086C161.656 51.2852 161.449 51.2734 161.262 51.2734C160.785 51.2734 160.371 51.3359 160.02 51.4609C159.676 51.5781 159.387 51.7539 159.152 51.9883C158.926 52.2227 158.754 52.5078 158.637 52.8438C158.527 53.1797 158.465 53.5625 158.449 53.9922L157.77 53.7812C157.77 52.9609 157.852 52.207 158.016 51.5195C158.18 50.8242 158.418 50.2188 158.73 49.7031C159.051 49.1875 159.441 48.7891 159.902 48.5078C160.363 48.2266 160.891 48.0859 161.484 48.0859C161.672 48.0859 161.863 48.1016 162.059 48.1328C162.254 48.1562 162.414 48.1914 162.539 48.2383ZM171.387 58.2344V43H174.785V61H171.727L171.387 58.2344ZM163.371 54.8125V54.5664C163.371 53.5977 163.48 52.7188 163.699 51.9297C163.918 51.1328 164.238 50.4492 164.66 49.8789C165.082 49.3086 165.602 48.8672 166.219 48.5547C166.836 48.2422 167.539 48.0859 168.328 48.0859C169.07 48.0859 169.719 48.2422 170.273 48.5547C170.836 48.8672 171.312 49.3125 171.703 49.8906C172.102 50.4609 172.422 51.1367 172.664 51.918C172.906 52.6914 173.082 53.5391 173.191 54.4609V55C173.082 55.8828 172.906 56.7031 172.664 57.4609C172.422 58.2188 172.102 58.8828 171.703 59.4531C171.312 60.0156 170.836 60.4531 170.273 60.7656C169.711 61.0781 169.055 61.2344 168.305 61.2344C167.516 61.2344 166.812 61.0742 166.195 60.7539C165.586 60.4336 165.07 59.9844 164.648 59.4062C164.234 58.8281 163.918 58.1484 163.699 57.3672C163.48 56.5859 163.371 55.7344 163.371 54.8125ZM166.746 54.5664V54.8125C166.746 55.3359 166.785 55.8242 166.863 56.2773C166.949 56.7305 167.086 57.1328 167.273 57.4844C167.469 57.8281 167.719 58.0977 168.023 58.293C168.336 58.4805 168.715 58.5742 169.16 58.5742C169.738 58.5742 170.215 58.4453 170.59 58.1875C170.965 57.9219 171.25 57.5586 171.445 57.0977C171.648 56.6367 171.766 56.1055 171.797 55.5039V53.9688C171.773 53.4766 171.703 53.0352 171.586 52.6445C171.477 52.2461 171.312 51.9062 171.094 51.625C170.883 51.3438 170.617 51.125 170.297 50.9688C169.984 50.8125 169.613 50.7344 169.184 50.7344C168.746 50.7344 168.371 50.8359 168.059 51.0391C167.746 51.2344 167.492 51.5039 167.297 51.8477C167.109 52.1914 166.969 52.5977 166.875 53.0664C166.789 53.5273 166.746 54.0273 166.746 54.5664ZM180.984 48.3203V61H177.598V48.3203H180.984ZM177.387 45.0156C177.387 44.5234 177.559 44.1172 177.902 43.7969C178.246 43.4766 178.707 43.3164 179.285 43.3164C179.855 43.3164 180.312 43.4766 180.656 43.7969C181.008 44.1172 181.184 44.5234 181.184 45.0156C181.184 45.5078 181.008 45.9141 180.656 46.2344C180.312 46.5547 179.855 46.7148 179.285 46.7148C178.707 46.7148 178.246 46.5547 177.902 46.2344C177.559 45.9141 177.387 45.5078 177.387 45.0156ZM190.617 58.1406V52.4922C190.617 52.0859 190.551 51.7383 190.418 51.4492C190.285 51.1523 190.078 50.9219 189.797 50.7578C189.523 50.5938 189.168 50.5117 188.73 50.5117C188.355 50.5117 188.031 50.5781 187.758 50.7109C187.484 50.8359 187.273 51.0195 187.125 51.2617C186.977 51.4961 186.902 51.7734 186.902 52.0938H183.527C183.527 51.5547 183.652 51.043 183.902 50.5586C184.152 50.0742 184.516 49.6484 184.992 49.2812C185.469 48.9062 186.035 48.6133 186.691 48.4023C187.355 48.1914 188.098 48.0859 188.918 48.0859C189.902 48.0859 190.777 48.25 191.543 48.5781C192.309 48.9062 192.91 49.3984 193.348 50.0547C193.793 50.7109 194.016 51.5312 194.016 52.5156V57.9414C194.016 58.6367 194.059 59.207 194.145 59.6523C194.23 60.0898 194.355 60.4727 194.52 60.8008V61H191.109C190.945 60.6562 190.82 60.2266 190.734 59.7109C190.656 59.1875 190.617 58.6641 190.617 58.1406ZM191.062 53.2773L191.086 55.1875H189.199C188.754 55.1875 188.367 55.2383 188.039 55.3398C187.711 55.4414 187.441 55.5859 187.23 55.7734C187.02 55.9531 186.863 56.1641 186.762 56.4062C186.668 56.6484 186.621 56.9141 186.621 57.2031C186.621 57.4922 186.688 57.7539 186.82 57.9883C186.953 58.2148 187.145 58.3945 187.395 58.5273C187.645 58.6523 187.938 58.7148 188.273 58.7148C188.781 58.7148 189.223 58.6133 189.598 58.4102C189.973 58.207 190.262 57.957 190.465 57.6602C190.676 57.3633 190.785 57.082 190.793 56.8164L191.684 58.2461C191.559 58.5664 191.387 58.8984 191.168 59.2422C190.957 59.5859 190.688 59.9102 190.359 60.2148C190.031 60.5117 189.637 60.7578 189.176 60.9531C188.715 61.1406 188.168 61.2344 187.535 61.2344C186.73 61.2344 186 61.0742 185.344 60.7539C184.695 60.4258 184.18 59.9766 183.797 59.4062C183.422 58.8281 183.234 58.1719 183.234 57.4375C183.234 56.7734 183.359 56.1836 183.609 55.668C183.859 55.1523 184.227 54.7188 184.711 54.3672C185.203 54.0078 185.816 53.7383 186.551 53.5586C187.285 53.3711 188.137 53.2773 189.105 53.2773H191.062ZM199.922 51.0273V61H196.547V48.3203H199.711L199.922 51.0273ZM199.43 54.2148H198.516C198.516 53.2773 198.637 52.4336 198.879 51.6836C199.121 50.9258 199.461 50.2812 199.898 49.75C200.336 49.2109 200.855 48.8008 201.457 48.5195C202.066 48.2305 202.746 48.0859 203.496 48.0859C204.09 48.0859 204.633 48.1719 205.125 48.3438C205.617 48.5156 206.039 48.7891 206.391 49.1641C206.75 49.5391 207.023 50.0352 207.211 50.6523C207.406 51.2695 207.504 52.0234 207.504 52.9141V61H204.105V52.9023C204.105 52.3398 204.027 51.9023 203.871 51.5898C203.715 51.2773 203.484 51.0586 203.18 50.9336C202.883 50.8008 202.516 50.7344 202.078 50.7344C201.625 50.7344 201.23 50.8242 200.895 51.0039C200.566 51.1836 200.293 51.4336 200.074 51.7539C199.863 52.0664 199.703 52.4336 199.594 52.8555C199.484 53.2773 199.43 53.7305 199.43 54.2148ZM229.781 52.082V58.8438C229.516 59.1641 229.105 59.5117 228.551 59.8867C227.996 60.2539 227.281 60.5703 226.406 60.8359C225.531 61.1016 224.473 61.2344 223.23 61.2344C222.129 61.2344 221.125 61.0547 220.219 60.6953C219.312 60.3281 218.531 59.793 217.875 59.0898C217.227 58.3867 216.727 57.5273 216.375 56.5117C216.023 55.4883 215.848 54.3203 215.848 53.0078V51.9414C215.848 50.6289 216.016 49.4609 216.352 48.4375C216.695 47.4141 217.184 46.5508 217.816 45.8477C218.449 45.1445 219.203 44.6094 220.078 44.2422C220.953 43.875 221.926 43.6914 222.996 43.6914C224.48 43.6914 225.699 43.9336 226.652 44.418C227.605 44.8945 228.332 45.5586 228.832 46.4102C229.34 47.2539 229.652 48.2227 229.77 49.3164H226.359C226.273 48.7383 226.109 48.2344 225.867 47.8047C225.625 47.375 225.277 47.0391 224.824 46.7969C224.379 46.5547 223.801 46.4336 223.09 46.4336C222.504 46.4336 221.98 46.5547 221.52 46.7969C221.066 47.0312 220.684 47.3789 220.371 47.8398C220.059 48.3008 219.82 48.8711 219.656 49.5508C219.492 50.2305 219.41 51.0195 219.41 51.918V53.0078C219.41 53.8984 219.496 54.6875 219.668 55.375C219.84 56.0547 220.094 56.6289 220.43 57.0977C220.773 57.5586 221.195 57.9062 221.695 58.1406C222.195 58.375 222.777 58.4922 223.441 58.4922C223.996 58.4922 224.457 58.4453 224.824 58.3516C225.199 58.2578 225.5 58.1445 225.727 58.0117C225.961 57.8711 226.141 57.7383 226.266 57.6133V54.5898H223.055V52.082H229.781ZM235.781 51.0859V61H232.406V48.3203H235.582L235.781 51.0859ZM239.602 48.2383L239.543 51.3672C239.379 51.3438 239.18 51.3242 238.945 51.3086C238.719 51.2852 238.512 51.2734 238.324 51.2734C237.848 51.2734 237.434 51.3359 237.082 51.4609C236.738 51.5781 236.449 51.7539 236.215 51.9883C235.988 52.2227 235.816 52.5078 235.699 52.8438C235.59 53.1797 235.527 53.5625 235.512 53.9922L234.832 53.7812C234.832 52.9609 234.914 52.207 235.078 51.5195C235.242 50.8242 235.48 50.2188 235.793 49.7031C236.113 49.1875 236.504 48.7891 236.965 48.5078C237.426 48.2266 237.953 48.0859 238.547 48.0859C238.734 48.0859 238.926 48.1016 239.121 48.1328C239.316 48.1562 239.477 48.1914 239.602 48.2383ZM240.305 54.7891V54.543C240.305 53.6133 240.438 52.7578 240.703 51.9766C240.969 51.1875 241.355 50.5039 241.863 49.9258C242.371 49.3477 242.996 48.8984 243.738 48.5781C244.48 48.25 245.332 48.0859 246.293 48.0859C247.254 48.0859 248.109 48.25 248.859 48.5781C249.609 48.8984 250.238 49.3477 250.746 49.9258C251.262 50.5039 251.652 51.1875 251.918 51.9766C252.184 52.7578 252.316 53.6133 252.316 54.543V54.7891C252.316 55.7109 252.184 56.5664 251.918 57.3555C251.652 58.1367 251.262 58.8203 250.746 59.4062C250.238 59.9844 249.613 60.4336 248.871 60.7539C248.129 61.0742 247.277 61.2344 246.316 61.2344C245.355 61.2344 244.5 61.0742 243.75 60.7539C243.008 60.4336 242.379 59.9844 241.863 59.4062C241.355 58.8203 240.969 58.1367 240.703 57.3555C240.438 56.5664 240.305 55.7109 240.305 54.7891ZM243.68 54.543V54.7891C243.68 55.3203 243.727 55.8164 243.82 56.2773C243.914 56.7383 244.062 57.1445 244.266 57.4961C244.477 57.8398 244.75 58.1094 245.086 58.3047C245.422 58.5 245.832 58.5977 246.316 58.5977C246.785 58.5977 247.188 58.5 247.523 58.3047C247.859 58.1094 248.129 57.8398 248.332 57.4961C248.535 57.1445 248.684 56.7383 248.777 56.2773C248.879 55.8164 248.93 55.3203 248.93 54.7891V54.543C248.93 54.0273 248.879 53.543 248.777 53.0898C248.684 52.6289 248.531 52.2227 248.32 51.8711C248.117 51.5117 247.848 51.2305 247.512 51.0273C247.176 50.8242 246.77 50.7227 246.293 50.7227C245.816 50.7227 245.41 50.8242 245.074 51.0273C244.746 51.2305 244.477 51.5117 244.266 51.8711C244.062 52.2227 243.914 52.6289 243.82 53.0898C243.727 53.543 243.68 54.0273 243.68 54.543ZM258.516 58.5391L261.328 48.3203H264.855L260.578 61H258.445L258.516 58.5391ZM256.582 48.3203L259.406 58.5508L259.465 61H257.32L253.043 48.3203H256.582ZM272.039 61.2344C271.055 61.2344 270.172 61.0781 269.391 60.7656C268.609 60.4453 267.945 60.0039 267.398 59.4414C266.859 58.8789 266.445 58.2266 266.156 57.4844C265.867 56.7344 265.723 55.9375 265.723 55.0938V54.625C265.723 53.6641 265.859 52.7852 266.133 51.9883C266.406 51.1914 266.797 50.5 267.305 49.9141C267.82 49.3281 268.445 48.8789 269.18 48.5664C269.914 48.2461 270.742 48.0859 271.664 48.0859C272.562 48.0859 273.359 48.2344 274.055 48.5312C274.75 48.8281 275.332 49.25 275.801 49.7969C276.277 50.3438 276.637 51 276.879 51.7656C277.121 52.5234 277.242 53.3672 277.242 54.2969V55.7031H267.164V53.4531H273.926V53.1953C273.926 52.7266 273.84 52.3086 273.668 51.9414C273.504 51.5664 273.254 51.2695 272.918 51.0508C272.582 50.832 272.152 50.7227 271.629 50.7227C271.184 50.7227 270.801 50.8203 270.48 51.0156C270.16 51.2109 269.898 51.4844 269.695 51.8359C269.5 52.1875 269.352 52.6016 269.25 53.0781C269.156 53.5469 269.109 54.0625 269.109 54.625V55.0938C269.109 55.6016 269.18 56.0703 269.32 56.5C269.469 56.9297 269.676 57.3008 269.941 57.6133C270.215 57.9258 270.543 58.168 270.926 58.3398C271.316 58.5117 271.758 58.5977 272.25 58.5977C272.859 58.5977 273.426 58.4805 273.949 58.2461C274.48 58.0039 274.938 57.6406 275.32 57.1562L276.961 58.9375C276.695 59.3203 276.332 59.6875 275.871 60.0391C275.418 60.3906 274.871 60.6797 274.23 60.9062C273.59 61.125 272.859 61.2344 272.039 61.2344Z" fill="#888888"/>
<path d="M109.219 107.422H100.734V101.07H109.219C110.375 101.07 111.312 100.875 112.031 100.484C112.75 100.094 113.273 99.5547 113.602 98.8672C113.945 98.1641 114.117 97.375 114.117 96.5C114.117 95.5625 113.945 94.6953 113.602 93.8984C113.273 93.1016 112.75 92.4609 112.031 91.9766C111.312 91.4766 110.375 91.2266 109.219 91.2266H103.828V119H95.6016V84.875H109.219C111.953 84.875 114.305 85.375 116.273 86.375C118.258 87.375 119.781 88.75 120.844 90.5C121.906 92.2344 122.438 94.2188 122.438 96.4531C122.438 98.6562 121.906 100.578 120.844 102.219C119.781 103.859 118.258 105.141 116.273 106.062C114.305 106.969 111.953 107.422 109.219 107.422ZM134.461 99.9219V119H126.562V93.6406H133.945L134.461 99.9219ZM141.961 93.4531L141.82 100.789C141.508 100.758 141.086 100.719 140.555 100.672C140.023 100.625 139.578 100.602 139.219 100.602C138.297 100.602 137.5 100.711 136.828 100.93C136.172 101.133 135.625 101.445 135.188 101.867C134.766 102.273 134.453 102.789 134.25 103.414C134.062 104.039 133.977 104.766 133.992 105.594L132.562 104.656C132.562 102.953 132.727 101.406 133.055 100.016C133.398 98.6094 133.883 97.3984 134.508 96.3828C135.133 95.3516 135.891 94.5625 136.781 94.0156C137.672 93.4531 138.672 93.1719 139.781 93.1719C140.172 93.1719 140.555 93.1953 140.93 93.2422C141.32 93.2891 141.664 93.3594 141.961 93.4531ZM142.852 106.578V106.086C142.852 104.227 143.117 102.516 143.648 100.953C144.18 99.375 144.961 98.0078 145.992 96.8516C147.023 95.6953 148.297 94.7969 149.812 94.1562C151.328 93.5 153.078 93.1719 155.062 93.1719C157.062 93.1719 158.82 93.5 160.336 94.1562C161.867 94.7969 163.148 95.6953 164.18 96.8516C165.211 98.0078 165.992 99.375 166.523 100.953C167.055 102.516 167.32 104.227 167.32 106.086V106.578C167.32 108.422 167.055 110.133 166.523 111.711C165.992 113.273 165.211 114.641 164.18 115.812C163.148 116.969 161.875 117.867 160.359 118.508C158.844 119.148 157.094 119.469 155.109 119.469C153.125 119.469 151.367 119.148 149.836 118.508C148.305 117.867 147.023 116.969 145.992 115.812C144.961 114.641 144.18 113.273 143.648 111.711C143.117 110.133 142.852 108.422 142.852 106.578ZM150.75 106.086V106.578C150.75 107.531 150.82 108.422 150.961 109.25C151.102 110.078 151.336 110.805 151.664 111.43C151.992 112.039 152.438 112.516 153 112.859C153.562 113.203 154.266 113.375 155.109 113.375C155.938 113.375 156.625 113.203 157.172 112.859C157.734 112.516 158.18 112.039 158.508 111.43C158.836 110.805 159.07 110.078 159.211 109.25C159.352 108.422 159.422 107.531 159.422 106.578V106.086C159.422 105.164 159.352 104.297 159.211 103.484C159.07 102.656 158.836 101.93 158.508 101.305C158.18 100.664 157.734 100.164 157.172 99.8047C156.609 99.4453 155.906 99.2656 155.062 99.2656C154.234 99.2656 153.539 99.4453 152.977 99.8047C152.43 100.164 151.992 100.664 151.664 101.305C151.336 101.93 151.102 102.656 150.961 103.484C150.82 104.297 150.75 105.164 150.75 106.086ZM171.422 93.6406H179.344V119.82C179.344 121.852 178.953 123.562 178.172 124.953C177.391 126.359 176.273 127.422 174.82 128.141C173.367 128.875 171.633 129.242 169.617 129.242C168.945 129.242 168.328 129.211 167.766 129.148C167.188 129.102 166.555 129 165.867 128.844V122.867C166.273 122.93 166.648 122.977 166.992 123.008C167.336 123.055 167.711 123.078 168.117 123.078C168.836 123.078 169.438 122.961 169.922 122.727C170.406 122.492 170.773 122.133 171.023 121.648C171.289 121.164 171.422 120.555 171.422 119.82V93.6406ZM170.836 87.1016C170.836 85.9766 171.242 85.0547 172.055 84.3359C172.867 83.6172 173.922 83.2578 175.219 83.2578C176.516 83.2578 177.57 83.6172 178.383 84.3359C179.195 85.0547 179.602 85.9766 179.602 87.1016C179.602 88.2266 179.195 89.1484 178.383 89.8672C177.57 90.5859 176.516 90.9453 175.219 90.9453C173.922 90.9453 172.867 90.5859 172.055 89.8672C171.242 89.1484 170.836 88.2266 170.836 87.1016ZM196.102 119.469C194.039 119.469 192.195 119.148 190.57 118.508C188.945 117.852 187.57 116.953 186.445 115.812C185.336 114.672 184.484 113.359 183.891 111.875C183.312 110.391 183.023 108.82 183.023 107.164V106.273C183.023 104.414 183.281 102.695 183.797 101.117C184.312 99.5234 185.078 98.1328 186.094 96.9453C187.109 95.7578 188.383 94.8359 189.914 94.1797C191.445 93.5078 193.227 93.1719 195.258 93.1719C197.055 93.1719 198.664 93.4609 200.086 94.0391C201.508 94.6172 202.711 95.4453 203.695 96.5234C204.695 97.6016 205.453 98.9062 205.969 100.438C206.5 101.969 206.766 103.688 206.766 105.594V108.805H186.047V103.859H199.055V103.25C199.07 102.406 198.922 101.688 198.609 101.094C198.312 100.5 197.875 100.047 197.297 99.7344C196.719 99.4219 196.016 99.2656 195.188 99.2656C194.328 99.2656 193.617 99.4531 193.055 99.8281C192.508 100.203 192.078 100.719 191.766 101.375C191.469 102.016 191.258 102.758 191.133 103.602C191.008 104.445 190.945 105.336 190.945 106.273V107.164C190.945 108.102 191.07 108.953 191.32 109.719C191.586 110.484 191.961 111.141 192.445 111.688C192.945 112.219 193.539 112.633 194.227 112.93C194.93 113.227 195.727 113.375 196.617 113.375C197.695 113.375 198.758 113.172 199.805 112.766C200.852 112.359 201.75 111.688 202.5 110.75L206.086 115.016C205.57 115.75 204.836 116.461 203.883 117.148C202.945 117.836 201.82 118.398 200.508 118.836C199.195 119.258 197.727 119.469 196.102 119.469ZM220.688 113.375C221.422 113.375 222.047 113.242 222.562 112.977C223.094 112.695 223.492 112.305 223.758 111.805C224.039 111.289 224.172 110.672 224.156 109.953H231.586C231.602 111.859 231.133 113.531 230.18 114.969C229.242 116.391 227.961 117.5 226.336 118.297C224.727 119.078 222.906 119.469 220.875 119.469C218.891 119.469 217.156 119.148 215.672 118.508C214.188 117.852 212.945 116.945 211.945 115.789C210.961 114.617 210.219 113.25 209.719 111.688C209.234 110.125 208.992 108.43 208.992 106.602V106.062C208.992 104.234 209.234 102.539 209.719 100.977C210.219 99.3984 210.961 98.0312 211.945 96.875C212.945 95.7031 214.18 94.7969 215.648 94.1562C217.133 93.5 218.859 93.1719 220.828 93.1719C222.938 93.1719 224.797 93.5703 226.406 94.3672C228.031 95.1641 229.305 96.3203 230.227 97.8359C231.148 99.3516 231.602 101.188 231.586 103.344H224.156C224.172 102.578 224.055 101.891 223.805 101.281C223.555 100.672 223.164 100.188 222.633 99.8281C222.117 99.4531 221.453 99.2656 220.641 99.2656C219.828 99.2656 219.172 99.4453 218.672 99.8047C218.172 100.164 217.789 100.664 217.523 101.305C217.273 101.93 217.102 102.648 217.008 103.461C216.93 104.273 216.891 105.141 216.891 106.062V106.602C216.891 107.539 216.93 108.422 217.008 109.25C217.102 110.062 217.281 110.781 217.547 111.406C217.812 112.016 218.195 112.5 218.695 112.859C219.195 113.203 219.859 113.375 220.688 113.375ZM248.32 93.6406V99.125H233.039V93.6406H248.32ZM236.25 87.3359H244.148V110.727C244.148 111.398 244.227 111.922 244.383 112.297C244.539 112.656 244.805 112.914 245.18 113.07C245.57 113.211 246.086 113.281 246.727 113.281C247.18 113.281 247.555 113.273 247.852 113.258C248.148 113.227 248.43 113.188 248.695 113.141V118.789C248.023 119.008 247.32 119.172 246.586 119.281C245.852 119.406 245.07 119.469 244.242 119.469C242.555 119.469 241.109 119.203 239.906 118.672C238.719 118.141 237.812 117.305 237.188 116.164C236.562 115.023 236.25 113.539 236.25 111.711V87.3359ZM277.406 107.422H268.922V101.07H277.406C278.562 101.07 279.5 100.875 280.219 100.484C280.938 100.094 281.461 99.5547 281.789 98.8672C282.133 98.1641 282.305 97.375 282.305 96.5C282.305 95.5625 282.133 94.6953 281.789 93.8984C281.461 93.1016 280.938 92.4609 280.219 91.9766C279.5 91.4766 278.562 91.2266 277.406 91.2266H272.016V119H263.789V84.875H277.406C280.141 84.875 282.492 85.375 284.461 86.375C286.445 87.375 287.969 88.75 289.031 90.5C290.094 92.2344 290.625 94.2188 290.625 96.4531C290.625 98.6562 290.094 100.578 289.031 102.219C287.969 103.859 286.445 105.141 284.461 106.062C282.492 106.969 280.141 107.422 277.406 107.422ZM302.414 83V119H294.516V83H302.414ZM301.477 105.453L299.625 105.5C299.625 103.719 299.844 102.078 300.281 100.578C300.719 99.0781 301.344 97.7734 302.156 96.6641C302.969 95.5547 303.945 94.6953 305.086 94.0859C306.227 93.4766 307.492 93.1719 308.883 93.1719C310.133 93.1719 311.273 93.3516 312.305 93.7109C313.352 94.0703 314.25 94.6484 315 95.4453C315.766 96.2422 316.352 97.2812 316.758 98.5625C317.18 99.8438 317.391 101.406 317.391 103.25V119H309.445V103.203C309.445 102.172 309.297 101.375 309 100.812C308.719 100.234 308.312 99.8359 307.781 99.6172C307.25 99.3828 306.602 99.2656 305.836 99.2656C304.914 99.2656 304.164 99.4219 303.586 99.7344C303.008 100.047 302.562 100.484 302.25 101.047C301.953 101.594 301.75 102.242 301.641 102.992C301.531 103.742 301.477 104.562 301.477 105.453ZM330.117 93.6406V119H322.195V93.6406H330.117ZM321.727 87.1016C321.727 85.9766 322.133 85.0547 322.945 84.3359C323.758 83.6172 324.812 83.2578 326.109 83.2578C327.406 83.2578 328.461 83.6172 329.273 84.3359C330.086 85.0547 330.492 85.9766 330.492 87.1016C330.492 88.2266 330.086 89.1484 329.273 89.8672C328.461 90.5859 327.406 90.9453 326.109 90.9453C324.812 90.9453 323.758 90.5859 322.945 89.8672C322.133 89.1484 321.727 88.2266 321.727 87.1016ZM343.336 83V119H335.414V83H343.336ZM347.227 106.578V106.086C347.227 104.227 347.492 102.516 348.023 100.953C348.555 99.375 349.336 98.0078 350.367 96.8516C351.398 95.6953 352.672 94.7969 354.188 94.1562C355.703 93.5 357.453 93.1719 359.438 93.1719C361.438 93.1719 363.195 93.5 364.711 94.1562C366.242 94.7969 367.523 95.6953 368.555 96.8516C369.586 98.0078 370.367 99.375 370.898 100.953C371.43 102.516 371.695 104.227 371.695 106.086V106.578C371.695 108.422 371.43 110.133 370.898 111.711C370.367 113.273 369.586 114.641 368.555 115.812C367.523 116.969 366.25 117.867 364.734 118.508C363.219 119.148 361.469 119.469 359.484 119.469C357.5 119.469 355.742 119.148 354.211 118.508C352.68 117.867 351.398 116.969 350.367 115.812C349.336 114.641 348.555 113.273 348.023 111.711C347.492 110.133 347.227 108.422 347.227 106.578ZM355.125 106.086V106.578C355.125 107.531 355.195 108.422 355.336 109.25C355.477 110.078 355.711 110.805 356.039 111.43C356.367 112.039 356.812 112.516 357.375 112.859C357.938 113.203 358.641 113.375 359.484 113.375C360.312 113.375 361 113.203 361.547 112.859C362.109 112.516 362.555 112.039 362.883 111.43C363.211 110.805 363.445 110.078 363.586 109.25C363.727 108.422 363.797 107.531 363.797 106.578V106.086C363.797 105.164 363.727 104.297 363.586 103.484C363.445 102.656 363.211 101.93 362.883 101.305C362.555 100.664 362.109 100.164 361.547 99.8047C360.984 99.4453 360.281 99.2656 359.438 99.2656C358.609 99.2656 357.914 99.4453 357.352 99.8047C356.805 100.164 356.367 100.664 356.039 101.305C355.711 101.93 355.477 102.656 355.336 103.484C355.195 104.297 355.125 105.164 355.125 106.086ZM388.5 111.875C388.5 111.438 388.352 111.062 388.055 110.75C387.773 110.422 387.273 110.125 386.555 109.859C385.836 109.578 384.828 109.297 383.531 109.016C382.297 108.75 381.133 108.398 380.039 107.961C378.961 107.523 378.016 106.992 377.203 106.367C376.391 105.742 375.75 105 375.281 104.141C374.828 103.281 374.602 102.297 374.602 101.188C374.602 100.109 374.828 99.0938 375.281 98.1406C375.75 97.1719 376.43 96.3203 377.32 95.5859C378.227 94.8359 379.328 94.25 380.625 93.8281C381.922 93.3906 383.398 93.1719 385.055 93.1719C387.336 93.1719 389.305 93.5234 390.961 94.2266C392.617 94.9141 393.891 95.8828 394.781 97.1328C395.688 98.3672 396.141 99.7969 396.141 101.422H388.242C388.242 100.781 388.133 100.234 387.914 99.7812C387.711 99.3281 387.375 98.9844 386.906 98.75C386.438 98.5 385.812 98.375 385.031 98.375C384.484 98.375 383.984 98.4766 383.531 98.6797C383.094 98.8828 382.742 99.1641 382.477 99.5234C382.211 99.8828 382.078 100.305 382.078 100.789C382.078 101.133 382.156 101.445 382.312 101.727C382.484 101.992 382.742 102.242 383.086 102.477C383.43 102.695 383.867 102.898 384.398 103.086C384.93 103.258 385.57 103.414 386.32 103.555C388.023 103.867 389.617 104.312 391.102 104.891C392.586 105.469 393.789 106.289 394.711 107.352C395.648 108.414 396.117 109.844 396.117 111.641C396.117 112.766 395.859 113.805 395.344 114.758C394.828 115.695 394.086 116.523 393.117 117.242C392.148 117.945 390.984 118.492 389.625 118.883C388.266 119.273 386.734 119.469 385.031 119.469C382.609 119.469 380.562 119.039 378.891 118.18C377.219 117.305 375.953 116.211 375.094 114.898C374.25 113.57 373.828 112.227 373.828 110.867H381.188C381.219 111.648 381.406 112.289 381.75 112.789C382.109 113.289 382.586 113.656 383.18 113.891C383.773 114.125 384.461 114.242 385.242 114.242C385.961 114.242 386.555 114.141 387.023 113.938C387.508 113.734 387.875 113.461 388.125 113.117C388.375 112.758 388.5 112.344 388.5 111.875ZM398.836 106.578V106.086C398.836 104.227 399.102 102.516 399.633 100.953C400.164 99.375 400.945 98.0078 401.977 96.8516C403.008 95.6953 404.281 94.7969 405.797 94.1562C407.312 93.5 409.062 93.1719 411.047 93.1719C413.047 93.1719 414.805 93.5 416.32 94.1562C417.852 94.7969 419.133 95.6953 420.164 96.8516C421.195 98.0078 421.977 99.375 422.508 100.953C423.039 102.516 423.305 104.227 423.305 106.086V106.578C423.305 108.422 423.039 110.133 422.508 111.711C421.977 113.273 421.195 114.641 420.164 115.812C419.133 116.969 417.859 117.867 416.344 118.508C414.828 119.148 413.078 119.469 411.094 119.469C409.109 119.469 407.352 119.148 405.82 118.508C404.289 117.867 403.008 116.969 401.977 115.812C400.945 114.641 400.164 113.273 399.633 111.711C399.102 110.133 398.836 108.422 398.836 106.578ZM406.734 106.086V106.578C406.734 107.531 406.805 108.422 406.945 109.25C407.086 110.078 407.32 110.805 407.648 111.43C407.977 112.039 408.422 112.516 408.984 112.859C409.547 113.203 410.25 113.375 411.094 113.375C411.922 113.375 412.609 113.203 413.156 112.859C413.719 112.516 414.164 112.039 414.492 111.43C414.82 110.805 415.055 110.078 415.195 109.25C415.336 108.422 415.406 107.531 415.406 106.578V106.086C415.406 105.164 415.336 104.297 415.195 103.484C415.055 102.656 414.82 101.93 414.492 101.305C414.164 100.664 413.719 100.164 413.156 99.8047C412.594 99.4453 411.891 99.2656 411.047 99.2656C410.219 99.2656 409.523 99.4453 408.961 99.8047C408.414 100.164 407.977 100.664 407.648 101.305C407.32 101.93 407.086 102.656 406.945 103.484C406.805 104.297 406.734 105.164 406.734 106.086ZM434.789 98.5156V128.75H426.891V93.6406H434.25L434.789 98.5156ZM450.352 106.016V106.508C450.352 108.352 450.141 110.062 449.719 111.641C449.297 113.219 448.672 114.594 447.844 115.766C447.016 116.938 445.984 117.852 444.75 118.508C443.531 119.148 442.117 119.469 440.508 119.469C438.992 119.469 437.688 119.133 436.594 118.461C435.5 117.789 434.586 116.859 433.852 115.672C433.117 114.484 432.523 113.125 432.07 111.594C431.617 110.062 431.258 108.445 430.992 106.742V106.109C431.258 104.281 431.617 102.586 432.07 101.023C432.523 99.4453 433.117 98.0703 433.852 96.8984C434.586 95.7266 435.492 94.8125 436.57 94.1562C437.664 93.5 438.969 93.1719 440.484 93.1719C442.094 93.1719 443.508 93.4766 444.727 94.0859C445.961 94.6953 446.992 95.5703 447.82 96.7109C448.664 97.8359 449.297 99.1875 449.719 100.766C450.141 102.344 450.352 104.094 450.352 106.016ZM442.453 106.508V106.016C442.453 105.031 442.383 104.133 442.242 103.32C442.102 102.492 441.875 101.773 441.562 101.164C441.266 100.555 440.867 100.086 440.367 99.7578C439.867 99.4297 439.25 99.2656 438.516 99.2656C437.672 99.2656 436.961 99.3984 436.383 99.6641C435.82 99.9141 435.367 100.305 435.023 100.836C434.695 101.352 434.461 102 434.32 102.781C434.195 103.547 434.141 104.445 434.156 105.477V107.398C434.125 108.586 434.242 109.633 434.508 110.539C434.773 111.43 435.234 112.125 435.891 112.625C436.547 113.125 437.438 113.375 438.562 113.375C439.312 113.375 439.938 113.203 440.438 112.859C440.938 112.5 441.336 112.008 441.633 111.383C441.93 110.742 442.141 110.008 442.266 109.18C442.391 108.352 442.453 107.461 442.453 106.508ZM461.602 83V119H453.703V83H461.602ZM460.664 105.453L458.812 105.5C458.812 103.719 459.031 102.078 459.469 100.578C459.906 99.0781 460.531 97.7734 461.344 96.6641C462.156 95.5547 463.133 94.6953 464.273 94.0859C465.414 93.4766 466.68 93.1719 468.07 93.1719C469.32 93.1719 470.461 93.3516 471.492 93.7109C472.539 94.0703 473.438 94.6484 474.188 95.4453C474.953 96.2422 475.539 97.2812 475.945 98.5625C476.367 99.8438 476.578 101.406 476.578 103.25V119H468.633V103.203C468.633 102.172 468.484 101.375 468.188 100.812C467.906 100.234 467.5 99.8359 466.969 99.6172C466.438 99.3828 465.789 99.2656 465.023 99.2656C464.102 99.2656 463.352 99.4219 462.773 99.7344C462.195 100.047 461.75 100.484 461.438 101.047C461.141 101.594 460.938 102.242 460.828 102.992C460.719 103.742 460.664 104.562 460.664 105.453ZM488.742 116.023L495.305 93.6406H503.789L493.594 122.773C493.375 123.414 493.086 124.102 492.727 124.836C492.367 125.586 491.875 126.297 491.25 126.969C490.625 127.641 489.82 128.188 488.836 128.609C487.867 129.031 486.664 129.242 485.227 129.242C484.461 129.242 483.898 129.203 483.539 129.125C483.195 129.062 482.664 128.945 481.945 128.773V123.125C482.148 123.125 482.32 123.125 482.461 123.125C482.617 123.125 482.789 123.125 482.977 123.125C483.82 123.125 484.492 123.039 484.992 122.867C485.508 122.695 485.898 122.445 486.164 122.117C486.445 121.789 486.664 121.391 486.82 120.922L488.742 116.023ZM487.078 93.6406L492.07 111.383L492.938 119.75H487.641L478.617 93.6406H487.078Z" fill="black"/>
<path d="M1134 0H1348C1356.28 0 1363 6.71573 1363 15V148C1363 156.284 1356.28 163 1348 163H1134V0Z" fill="#11C8D3"/>
<path d="M1234.26 103.786H1262.74V109.357H1234.26V103.786ZM1239.96 114.929H1257.04V120.5H1239.96V114.929ZM1248.5 42.5C1240.95 42.5 1233.71 45.4349 1228.37 50.6592C1223.03 55.8834 1220.03 62.969 1220.03 70.3571C1219.84 74.4057 1220.63 78.4412 1222.34 82.1315C1224.05 85.8219 1226.64 89.0616 1229.88 91.5843C1232.73 94.175 1234.26 95.6514 1234.26 98.2143H1239.96C1239.96 93.0886 1236.8 90.2193 1233.72 87.4614C1231.06 85.4676 1228.94 82.8658 1227.55 79.8838C1226.15 76.9019 1225.53 73.6308 1225.72 70.3571C1225.72 64.4466 1228.12 58.7781 1232.39 54.5988C1236.67 50.4194 1242.46 48.0714 1248.5 48.0714C1254.54 48.0714 1260.33 50.4194 1264.61 54.5988C1268.88 58.7781 1271.28 64.4466 1271.28 70.3571C1271.47 73.6333 1270.84 76.9059 1269.44 79.888C1268.04 82.8701 1265.92 85.4706 1263.25 87.4614C1260.2 90.2471 1257.04 93.0329 1257.04 98.2143H1262.74C1262.74 95.6514 1264.25 94.175 1267.12 91.5564C1270.36 89.0381 1272.94 85.8031 1274.66 82.1176C1276.37 78.4321 1277.16 74.4014 1276.97 70.3571C1276.97 66.6989 1276.24 63.0765 1274.81 59.6967C1273.37 56.3169 1271.28 53.2459 1268.63 50.6592C1265.99 48.0724 1262.85 46.0205 1259.4 44.6205C1255.94 43.2205 1252.24 42.5 1248.5 42.5Z" fill="white"/>
</svg>
