<svg width="1363" height="163" viewBox="0 0 1363 163" fill="none" xmlns="http://www.w3.org/2000/svg">
<path d="M0 15C0 6.71573 6.71573 0 15 0H37V163H15C6.71573 163 0 156.284 0 148V15Z" fill="#424242"/>
<rect width="1097" height="163" transform="translate(37)" fill="#F0F0F0"/>
<path d="M101.906 53.9219L94.3945 51.2383V48.0859L104.602 52.375V54.6367L101.906 53.9219ZM94.3945 56.1719L101.918 53.4297L104.602 52.7852V55.0352L94.3945 59.3242V56.1719ZM126.422 52.082V58.8438C126.156 59.1641 125.746 59.5117 125.191 59.8867C124.637 60.2539 123.922 60.5703 123.047 60.8359C122.172 61.1016 121.113 61.2344 119.871 61.2344C118.77 61.2344 117.766 61.0547 116.859 60.6953C115.953 60.3281 115.172 59.793 114.516 59.0898C113.867 58.3867 113.367 57.5273 113.016 56.5117C112.664 55.4883 112.488 54.3203 112.488 53.0078V51.9414C112.488 50.6289 112.656 49.4609 112.992 48.4375C113.336 47.4141 113.824 46.5508 114.457 45.8477C115.09 45.1445 115.844 44.6094 116.719 44.2422C117.594 43.875 118.566 43.6914 119.637 43.6914C121.121 43.6914 122.34 43.9336 123.293 44.418C124.246 44.8945 124.973 45.5586 125.473 46.4102C125.98 47.2539 126.293 48.2227 126.41 49.3164H123C122.914 48.7383 122.75 48.2344 122.508 47.8047C122.266 47.375 121.918 47.0391 121.465 46.7969C121.02 46.5547 120.441 46.4336 119.73 46.4336C119.145 46.4336 118.621 46.5547 118.16 46.7969C117.707 47.0312 117.324 47.3789 117.012 47.8398C116.699 48.3008 116.461 48.8711 116.297 49.5508C116.133 50.2305 116.051 51.0195 116.051 51.918V53.0078C116.051 53.8984 116.137 54.6875 116.309 55.375C116.48 56.0547 116.734 56.6289 117.07 57.0977C117.414 57.5586 117.836 57.9062 118.336 58.1406C118.836 58.375 119.418 58.4922 120.082 58.4922C120.637 58.4922 121.098 58.4453 121.465 58.3516C121.84 58.2578 122.141 58.1445 122.367 58.0117C122.602 57.8711 122.781 57.7383 122.906 57.6133V54.5898H119.695V52.082H126.422ZM136.547 57.9648V48.3203H139.922V61H136.746L136.547 57.9648ZM136.922 55.3633L137.918 55.3398C137.918 56.1836 137.82 56.9688 137.625 57.6953C137.43 58.4141 137.137 59.0391 136.746 59.5703C136.355 60.0938 135.863 60.5039 135.27 60.8008C134.676 61.0898 133.977 61.2344 133.172 61.2344C132.555 61.2344 131.984 61.1484 131.461 60.9766C130.945 60.7969 130.5 60.5195 130.125 60.1445C129.758 59.7617 129.469 59.2734 129.258 58.6797C129.055 58.0781 128.953 57.3555 128.953 56.5117V48.3203H132.328V56.5352C132.328 56.9102 132.371 57.2266 132.457 57.4844C132.551 57.7422 132.68 57.9531 132.844 58.1172C133.008 58.2812 133.199 58.3984 133.418 58.4688C133.645 58.5391 133.895 58.5742 134.168 58.5742C134.863 58.5742 135.41 58.4336 135.809 58.1523C136.215 57.8711 136.5 57.4883 136.664 57.0039C136.836 56.5117 136.922 55.9648 136.922 55.3633ZM149.344 58.1406V52.4922C149.344 52.0859 149.277 51.7383 149.145 51.4492C149.012 51.1523 148.805 50.9219 148.523 50.7578C148.25 50.5938 147.895 50.5117 147.457 50.5117C147.082 50.5117 146.758 50.5781 146.484 50.7109C146.211 50.8359 146 51.0195 145.852 51.2617C145.703 51.4961 145.629 51.7734 145.629 52.0938H142.254C142.254 51.5547 142.379 51.043 142.629 50.5586C142.879 50.0742 143.242 49.6484 143.719 49.2812C144.195 48.9062 144.762 48.6133 145.418 48.4023C146.082 48.1914 146.824 48.0859 147.645 48.0859C148.629 48.0859 149.504 48.25 150.27 48.5781C151.035 48.9062 151.637 49.3984 152.074 50.0547C152.52 50.7109 152.742 51.5312 152.742 52.5156V57.9414C152.742 58.6367 152.785 59.207 152.871 59.6523C152.957 60.0898 153.082 60.4727 153.246 60.8008V61H149.836C149.672 60.6562 149.547 60.2266 149.461 59.7109C149.383 59.1875 149.344 58.6641 149.344 58.1406ZM149.789 53.2773L149.812 55.1875H147.926C147.48 55.1875 147.094 55.2383 146.766 55.3398C146.438 55.4414 146.168 55.5859 145.957 55.7734C145.746 55.9531 145.59 56.1641 145.488 56.4062C145.395 56.6484 145.348 56.9141 145.348 57.2031C145.348 57.4922 145.414 57.7539 145.547 57.9883C145.68 58.2148 145.871 58.3945 146.121 58.5273C146.371 58.6523 146.664 58.7148 147 58.7148C147.508 58.7148 147.949 58.6133 148.324 58.4102C148.699 58.207 148.988 57.957 149.191 57.6602C149.402 57.3633 149.512 57.082 149.52 56.8164L150.41 58.2461C150.285 58.5664 150.113 58.8984 149.895 59.2422C149.684 59.5859 149.414 59.9102 149.086 60.2148C148.758 60.5117 148.363 60.7578 147.902 60.9531C147.441 61.1406 146.895 61.2344 146.262 61.2344C145.457 61.2344 144.727 61.0742 144.07 60.7539C143.422 60.4258 142.906 59.9766 142.523 59.4062C142.148 58.8281 141.961 58.1719 141.961 57.4375C141.961 56.7734 142.086 56.1836 142.336 55.668C142.586 55.1523 142.953 54.7188 143.438 54.3672C143.93 54.0078 144.543 53.7383 145.277 53.5586C146.012 53.3711 146.863 53.2773 147.832 53.2773H149.789ZM158.719 51.0859V61H155.344V48.3203H158.52L158.719 51.0859ZM162.539 48.2383L162.48 51.3672C162.316 51.3438 162.117 51.3242 161.883 51.3086C161.656 51.2852 161.449 51.2734 161.262 51.2734C160.785 51.2734 160.371 51.3359 160.02 51.4609C159.676 51.5781 159.387 51.7539 159.152 51.9883C158.926 52.2227 158.754 52.5078 158.637 52.8438C158.527 53.1797 158.465 53.5625 158.449 53.9922L157.77 53.7812C157.77 52.9609 157.852 52.207 158.016 51.5195C158.18 50.8242 158.418 50.2188 158.73 49.7031C159.051 49.1875 159.441 48.7891 159.902 48.5078C160.363 48.2266 160.891 48.0859 161.484 48.0859C161.672 48.0859 161.863 48.1016 162.059 48.1328C162.254 48.1562 162.414 48.1914 162.539 48.2383ZM171.387 58.2344V43H174.785V61H171.727L171.387 58.2344ZM163.371 54.8125V54.5664C163.371 53.5977 163.48 52.7188 163.699 51.9297C163.918 51.1328 164.238 50.4492 164.66 49.8789C165.082 49.3086 165.602 48.8672 166.219 48.5547C166.836 48.2422 167.539 48.0859 168.328 48.0859C169.07 48.0859 169.719 48.2422 170.273 48.5547C170.836 48.8672 171.312 49.3125 171.703 49.8906C172.102 50.4609 172.422 51.1367 172.664 51.918C172.906 52.6914 173.082 53.5391 173.191 54.4609V55C173.082 55.8828 172.906 56.7031 172.664 57.4609C172.422 58.2188 172.102 58.8828 171.703 59.4531C171.312 60.0156 170.836 60.4531 170.273 60.7656C169.711 61.0781 169.055 61.2344 168.305 61.2344C167.516 61.2344 166.812 61.0742 166.195 60.7539C165.586 60.4336 165.07 59.9844 164.648 59.4062C164.234 58.8281 163.918 58.1484 163.699 57.3672C163.48 56.5859 163.371 55.7344 163.371 54.8125ZM166.746 54.5664V54.8125C166.746 55.3359 166.785 55.8242 166.863 56.2773C166.949 56.7305 167.086 57.1328 167.273 57.4844C167.469 57.8281 167.719 58.0977 168.023 58.293C168.336 58.4805 168.715 58.5742 169.16 58.5742C169.738 58.5742 170.215 58.4453 170.59 58.1875C170.965 57.9219 171.25 57.5586 171.445 57.0977C171.648 56.6367 171.766 56.1055 171.797 55.5039V53.9688C171.773 53.4766 171.703 53.0352 171.586 52.6445C171.477 52.2461 171.312 51.9062 171.094 51.625C170.883 51.3438 170.617 51.125 170.297 50.9688C169.984 50.8125 169.613 50.7344 169.184 50.7344C168.746 50.7344 168.371 50.8359 168.059 51.0391C167.746 51.2344 167.492 51.5039 167.297 51.8477C167.109 52.1914 166.969 52.5977 166.875 53.0664C166.789 53.5273 166.746 54.0273 166.746 54.5664ZM180.984 48.3203V61H177.598V48.3203H180.984ZM177.387 45.0156C177.387 44.5234 177.559 44.1172 177.902 43.7969C178.246 43.4766 178.707 43.3164 179.285 43.3164C179.855 43.3164 180.312 43.4766 180.656 43.7969C181.008 44.1172 181.184 44.5234 181.184 45.0156C181.184 45.5078 181.008 45.9141 180.656 46.2344C180.312 46.5547 179.855 46.7148 179.285 46.7148C178.707 46.7148 178.246 46.5547 177.902 46.2344C177.559 45.9141 177.387 45.5078 177.387 45.0156ZM190.617 58.1406V52.4922C190.617 52.0859 190.551 51.7383 190.418 51.4492C190.285 51.1523 190.078 50.9219 189.797 50.7578C189.523 50.5938 189.168 50.5117 188.73 50.5117C188.355 50.5117 188.031 50.5781 187.758 50.7109C187.484 50.8359 187.273 51.0195 187.125 51.2617C186.977 51.4961 186.902 51.7734 186.902 52.0938H183.527C183.527 51.5547 183.652 51.043 183.902 50.5586C184.152 50.0742 184.516 49.6484 184.992 49.2812C185.469 48.9062 186.035 48.6133 186.691 48.4023C187.355 48.1914 188.098 48.0859 188.918 48.0859C189.902 48.0859 190.777 48.25 191.543 48.5781C192.309 48.9062 192.91 49.3984 193.348 50.0547C193.793 50.7109 194.016 51.5312 194.016 52.5156V57.9414C194.016 58.6367 194.059 59.207 194.145 59.6523C194.23 60.0898 194.355 60.4727 194.52 60.8008V61H191.109C190.945 60.6562 190.82 60.2266 190.734 59.7109C190.656 59.1875 190.617 58.6641 190.617 58.1406ZM191.062 53.2773L191.086 55.1875H189.199C188.754 55.1875 188.367 55.2383 188.039 55.3398C187.711 55.4414 187.441 55.5859 187.23 55.7734C187.02 55.9531 186.863 56.1641 186.762 56.4062C186.668 56.6484 186.621 56.9141 186.621 57.2031C186.621 57.4922 186.688 57.7539 186.82 57.9883C186.953 58.2148 187.145 58.3945 187.395 58.5273C187.645 58.6523 187.938 58.7148 188.273 58.7148C188.781 58.7148 189.223 58.6133 189.598 58.4102C189.973 58.207 190.262 57.957 190.465 57.6602C190.676 57.3633 190.785 57.082 190.793 56.8164L191.684 58.2461C191.559 58.5664 191.387 58.8984 191.168 59.2422C190.957 59.5859 190.688 59.9102 190.359 60.2148C190.031 60.5117 189.637 60.7578 189.176 60.9531C188.715 61.1406 188.168 61.2344 187.535 61.2344C186.73 61.2344 186 61.0742 185.344 60.7539C184.695 60.4258 184.18 59.9766 183.797 59.4062C183.422 58.8281 183.234 58.1719 183.234 57.4375C183.234 56.7734 183.359 56.1836 183.609 55.668C183.859 55.1523 184.227 54.7188 184.711 54.3672C185.203 54.0078 185.816 53.7383 186.551 53.5586C187.285 53.3711 188.137 53.2773 189.105 53.2773H191.062ZM199.922 51.0273V61H196.547V48.3203H199.711L199.922 51.0273ZM199.43 54.2148H198.516C198.516 53.2773 198.637 52.4336 198.879 51.6836C199.121 50.9258 199.461 50.2812 199.898 49.75C200.336 49.2109 200.855 48.8008 201.457 48.5195C202.066 48.2305 202.746 48.0859 203.496 48.0859C204.09 48.0859 204.633 48.1719 205.125 48.3438C205.617 48.5156 206.039 48.7891 206.391 49.1641C206.75 49.5391 207.023 50.0352 207.211 50.6523C207.406 51.2695 207.504 52.0234 207.504 52.9141V61H204.105V52.9023C204.105 52.3398 204.027 51.9023 203.871 51.5898C203.715 51.2773 203.484 51.0586 203.18 50.9336C202.883 50.8008 202.516 50.7344 202.078 50.7344C201.625 50.7344 201.23 50.8242 200.895 51.0039C200.566 51.1836 200.293 51.4336 200.074 51.7539C199.863 52.0664 199.703 52.4336 199.594 52.8555C199.484 53.2773 199.43 53.7305 199.43 54.2148ZM229.781 52.082V58.8438C229.516 59.1641 229.105 59.5117 228.551 59.8867C227.996 60.2539 227.281 60.5703 226.406 60.8359C225.531 61.1016 224.473 61.2344 223.23 61.2344C222.129 61.2344 221.125 61.0547 220.219 60.6953C219.312 60.3281 218.531 59.793 217.875 59.0898C217.227 58.3867 216.727 57.5273 216.375 56.5117C216.023 55.4883 215.848 54.3203 215.848 53.0078V51.9414C215.848 50.6289 216.016 49.4609 216.352 48.4375C216.695 47.4141 217.184 46.5508 217.816 45.8477C218.449 45.1445 219.203 44.6094 220.078 44.2422C220.953 43.875 221.926 43.6914 222.996 43.6914C224.48 43.6914 225.699 43.9336 226.652 44.418C227.605 44.8945 228.332 45.5586 228.832 46.4102C229.34 47.2539 229.652 48.2227 229.77 49.3164H226.359C226.273 48.7383 226.109 48.2344 225.867 47.8047C225.625 47.375 225.277 47.0391 224.824 46.7969C224.379 46.5547 223.801 46.4336 223.09 46.4336C222.504 46.4336 221.98 46.5547 221.52 46.7969C221.066 47.0312 220.684 47.3789 220.371 47.8398C220.059 48.3008 219.82 48.8711 219.656 49.5508C219.492 50.2305 219.41 51.0195 219.41 51.918V53.0078C219.41 53.8984 219.496 54.6875 219.668 55.375C219.84 56.0547 220.094 56.6289 220.43 57.0977C220.773 57.5586 221.195 57.9062 221.695 58.1406C222.195 58.375 222.777 58.4922 223.441 58.4922C223.996 58.4922 224.457 58.4453 224.824 58.3516C225.199 58.2578 225.5 58.1445 225.727 58.0117C225.961 57.8711 226.141 57.7383 226.266 57.6133V54.5898H223.055V52.082H229.781ZM235.781 51.0859V61H232.406V48.3203H235.582L235.781 51.0859ZM239.602 48.2383L239.543 51.3672C239.379 51.3438 239.18 51.3242 238.945 51.3086C238.719 51.2852 238.512 51.2734 238.324 51.2734C237.848 51.2734 237.434 51.3359 237.082 51.4609C236.738 51.5781 236.449 51.7539 236.215 51.9883C235.988 52.2227 235.816 52.5078 235.699 52.8438C235.59 53.1797 235.527 53.5625 235.512 53.9922L234.832 53.7812C234.832 52.9609 234.914 52.207 235.078 51.5195C235.242 50.8242 235.48 50.2188 235.793 49.7031C236.113 49.1875 236.504 48.7891 236.965 48.5078C237.426 48.2266 237.953 48.0859 238.547 48.0859C238.734 48.0859 238.926 48.1016 239.121 48.1328C239.316 48.1562 239.477 48.1914 239.602 48.2383ZM240.305 54.7891V54.543C240.305 53.6133 240.438 52.7578 240.703 51.9766C240.969 51.1875 241.355 50.5039 241.863 49.9258C242.371 49.3477 242.996 48.8984 243.738 48.5781C244.48 48.25 245.332 48.0859 246.293 48.0859C247.254 48.0859 248.109 48.25 248.859 48.5781C249.609 48.8984 250.238 49.3477 250.746 49.9258C251.262 50.5039 251.652 51.1875 251.918 51.9766C252.184 52.7578 252.316 53.6133 252.316 54.543V54.7891C252.316 55.7109 252.184 56.5664 251.918 57.3555C251.652 58.1367 251.262 58.8203 250.746 59.4062C250.238 59.9844 249.613 60.4336 248.871 60.7539C248.129 61.0742 247.277 61.2344 246.316 61.2344C245.355 61.2344 244.5 61.0742 243.75 60.7539C243.008 60.4336 242.379 59.9844 241.863 59.4062C241.355 58.8203 240.969 58.1367 240.703 57.3555C240.438 56.5664 240.305 55.7109 240.305 54.7891ZM243.68 54.543V54.7891C243.68 55.3203 243.727 55.8164 243.82 56.2773C243.914 56.7383 244.062 57.1445 244.266 57.4961C244.477 57.8398 244.75 58.1094 245.086 58.3047C245.422 58.5 245.832 58.5977 246.316 58.5977C246.785 58.5977 247.188 58.5 247.523 58.3047C247.859 58.1094 248.129 57.8398 248.332 57.4961C248.535 57.1445 248.684 56.7383 248.777 56.2773C248.879 55.8164 248.93 55.3203 248.93 54.7891V54.543C248.93 54.0273 248.879 53.543 248.777 53.0898C248.684 52.6289 248.531 52.2227 248.32 51.8711C248.117 51.5117 247.848 51.2305 247.512 51.0273C247.176 50.8242 246.77 50.7227 246.293 50.7227C245.816 50.7227 245.41 50.8242 245.074 51.0273C244.746 51.2305 244.477 51.5117 244.266 51.8711C244.062 52.2227 243.914 52.6289 243.82 53.0898C243.727 53.543 243.68 54.0273 243.68 54.543ZM258.516 58.5391L261.328 48.3203H264.855L260.578 61H258.445L258.516 58.5391ZM256.582 48.3203L259.406 58.5508L259.465 61H257.32L253.043 48.3203H256.582ZM272.039 61.2344C271.055 61.2344 270.172 61.0781 269.391 60.7656C268.609 60.4453 267.945 60.0039 267.398 59.4414C266.859 58.8789 266.445 58.2266 266.156 57.4844C265.867 56.7344 265.723 55.9375 265.723 55.0938V54.625C265.723 53.6641 265.859 52.7852 266.133 51.9883C266.406 51.1914 266.797 50.5 267.305 49.9141C267.82 49.3281 268.445 48.8789 269.18 48.5664C269.914 48.2461 270.742 48.0859 271.664 48.0859C272.562 48.0859 273.359 48.2344 274.055 48.5312C274.75 48.8281 275.332 49.25 275.801 49.7969C276.277 50.3438 276.637 51 276.879 51.7656C277.121 52.5234 277.242 53.3672 277.242 54.2969V55.7031H267.164V53.4531H273.926V53.1953C273.926 52.7266 273.84 52.3086 273.668 51.9414C273.504 51.5664 273.254 51.2695 272.918 51.0508C272.582 50.832 272.152 50.7227 271.629 50.7227C271.184 50.7227 270.801 50.8203 270.48 51.0156C270.16 51.2109 269.898 51.4844 269.695 51.8359C269.5 52.1875 269.352 52.6016 269.25 53.0781C269.156 53.5469 269.109 54.0625 269.109 54.625V55.0938C269.109 55.6016 269.18 56.0703 269.32 56.5C269.469 56.9297 269.676 57.3008 269.941 57.6133C270.215 57.9258 270.543 58.168 270.926 58.3398C271.316 58.5117 271.758 58.5977 272.25 58.5977C272.859 58.5977 273.426 58.4805 273.949 58.2461C274.48 58.0039 274.938 57.6406 275.32 57.1562L276.961 58.9375C276.695 59.3203 276.332 59.6875 275.871 60.0391C275.418 60.3906 274.871 60.6797 274.23 60.9062C273.59 61.125 272.859 61.2344 272.039 61.2344Z" fill="#888888"/>
<path d="M118.594 98.4219V104.75H101.086V98.4219H118.594ZM103.828 84.875V119H95.6016V84.875H103.828ZM124.125 84.875V119H115.922V84.875H124.125ZM127.992 106.578V106.086C127.992 104.227 128.258 102.516 128.789 100.953C129.32 99.375 130.102 98.0078 131.133 96.8516C132.164 95.6953 133.438 94.7969 134.953 94.1562C136.469 93.5 138.219 93.1719 140.203 93.1719C142.203 93.1719 143.961 93.5 145.477 94.1562C147.008 94.7969 148.289 95.6953 149.32 96.8516C150.352 98.0078 151.133 99.375 151.664 100.953C152.195 102.516 152.461 104.227 152.461 106.086V106.578C152.461 108.422 152.195 110.133 151.664 111.711C151.133 113.273 150.352 114.641 149.32 115.812C148.289 116.969 147.016 117.867 145.5 118.508C143.984 119.148 142.234 119.469 140.25 119.469C138.266 119.469 136.508 119.148 134.977 118.508C133.445 117.867 132.164 116.969 131.133 115.812C130.102 114.641 129.32 113.273 128.789 111.711C128.258 110.133 127.992 108.422 127.992 106.578ZM135.891 106.086V106.578C135.891 107.531 135.961 108.422 136.102 109.25C136.242 110.078 136.477 110.805 136.805 111.43C137.133 112.039 137.578 112.516 138.141 112.859C138.703 113.203 139.406 113.375 140.25 113.375C141.078 113.375 141.766 113.203 142.312 112.859C142.875 112.516 143.32 112.039 143.648 111.43C143.977 110.805 144.211 110.078 144.352 109.25C144.492 108.422 144.562 107.531 144.562 106.578V106.086C144.562 105.164 144.492 104.297 144.352 103.484C144.211 102.656 143.977 101.93 143.648 101.305C143.32 100.664 142.875 100.164 142.312 99.8047C141.75 99.4453 141.047 99.2656 140.203 99.2656C139.375 99.2656 138.68 99.4453 138.117 99.8047C137.57 100.164 137.133 100.664 136.805 101.305C136.477 101.93 136.242 102.656 136.102 103.484C135.961 104.297 135.891 105.164 135.891 106.086ZM163.688 111.453L168.375 93.6406H173.32L171.562 102.57L166.922 119H162.961L163.688 111.453ZM161.836 93.6406L164.742 111.312L165.07 119H160.266L154.266 93.6406H161.836ZM177.492 110.938L180.422 93.6406H187.992L182.039 119H177.234L177.492 110.938ZM173.883 93.6406L178.617 111.406L179.344 119H175.336L170.789 102.617L169.102 93.6406H173.883ZM218.297 84.875V119H210.07V84.875H218.297ZM228.562 84.875V91.2266H200.039V84.875H228.562ZM225.773 106.578V106.086C225.773 104.227 226.039 102.516 226.57 100.953C227.102 99.375 227.883 98.0078 228.914 96.8516C229.945 95.6953 231.219 94.7969 232.734 94.1562C234.25 93.5 236 93.1719 237.984 93.1719C239.984 93.1719 241.742 93.5 243.258 94.1562C244.789 94.7969 246.07 95.6953 247.102 96.8516C248.133 98.0078 248.914 99.375 249.445 100.953C249.977 102.516 250.242 104.227 250.242 106.086V106.578C250.242 108.422 249.977 110.133 249.445 111.711C248.914 113.273 248.133 114.641 247.102 115.812C246.07 116.969 244.797 117.867 243.281 118.508C241.766 119.148 240.016 119.469 238.031 119.469C236.047 119.469 234.289 119.148 232.758 118.508C231.227 117.867 229.945 116.969 228.914 115.812C227.883 114.641 227.102 113.273 226.57 111.711C226.039 110.133 225.773 108.422 225.773 106.578ZM233.672 106.086V106.578C233.672 107.531 233.742 108.422 233.883 109.25C234.023 110.078 234.258 110.805 234.586 111.43C234.914 112.039 235.359 112.516 235.922 112.859C236.484 113.203 237.188 113.375 238.031 113.375C238.859 113.375 239.547 113.203 240.094 112.859C240.656 112.516 241.102 112.039 241.43 111.43C241.758 110.805 241.992 110.078 242.133 109.25C242.273 108.422 242.344 107.531 242.344 106.578V106.086C242.344 105.164 242.273 104.297 242.133 103.484C241.992 102.656 241.758 101.93 241.43 101.305C241.102 100.664 240.656 100.164 240.094 99.8047C239.531 99.4453 238.828 99.2656 237.984 99.2656C237.156 99.2656 236.461 99.4453 235.898 99.8047C235.352 100.164 234.914 100.664 234.586 101.305C234.258 101.93 234.023 102.656 233.883 103.484C233.742 104.297 233.672 105.164 233.672 106.086ZM266.086 84.875H279.516C282.141 84.875 284.422 85.2656 286.359 86.0469C288.297 86.8281 289.789 87.9844 290.836 89.5156C291.898 91.0469 292.43 92.9375 292.43 95.1875C292.43 97.1406 292.125 98.7734 291.516 100.086C290.906 101.398 290.055 102.484 288.961 103.344C287.883 104.188 286.625 104.883 285.188 105.43L282.492 106.953H271.219L271.172 100.602H279.516C280.562 100.602 281.43 100.414 282.117 100.039C282.805 99.6641 283.32 99.1328 283.664 98.4453C284.023 97.7422 284.203 96.9062 284.203 95.9375C284.203 94.9531 284.023 94.1094 283.664 93.4062C283.305 92.7031 282.773 92.1641 282.07 91.7891C281.383 91.4141 280.531 91.2266 279.516 91.2266H274.312V119H266.086V84.875ZM284.766 119L277.219 103.906L285.938 103.859L293.578 118.648V119H284.766ZM311.836 112.836V93.6406H319.758V119H312.352L311.836 112.836ZM312.586 107.68L314.648 107.633C314.648 109.336 314.445 110.914 314.039 112.367C313.633 113.805 313.031 115.055 312.234 116.117C311.453 117.18 310.484 118.008 309.328 118.602C308.188 119.18 306.867 119.469 305.367 119.469C304.117 119.469 302.969 119.297 301.922 118.953C300.891 118.594 300 118.039 299.25 117.289C298.5 116.523 297.914 115.547 297.492 114.359C297.086 113.156 296.883 111.719 296.883 110.047V93.6406H304.781V110.094C304.781 110.656 304.852 111.141 304.992 111.547C305.133 111.953 305.336 112.297 305.602 112.578C305.867 112.844 306.195 113.047 306.586 113.188C306.992 113.312 307.453 113.375 307.969 113.375C309.156 113.375 310.086 113.125 310.758 112.625C311.43 112.125 311.898 111.445 312.164 110.586C312.445 109.727 312.586 108.758 312.586 107.68ZM331.875 99.0547V119H323.977V93.6406H331.383L331.875 99.0547ZM330.938 105.453L329.086 105.5C329.086 103.562 329.32 101.836 329.789 100.32C330.258 98.7891 330.922 97.4922 331.781 96.4297C332.641 95.3672 333.664 94.5625 334.852 94.0156C336.055 93.4531 337.391 93.1719 338.859 93.1719C340.031 93.1719 341.102 93.3438 342.07 93.6875C343.055 94.0312 343.898 94.5859 344.602 95.3516C345.32 96.1172 345.867 97.1328 346.242 98.3984C346.633 99.6484 346.828 101.195 346.828 103.039V119H338.883V103.016C338.883 102 338.742 101.227 338.461 100.695C338.18 100.148 337.773 99.7734 337.242 99.5703C336.711 99.3672 336.062 99.2656 335.297 99.2656C334.484 99.2656 333.797 99.4219 333.234 99.7344C332.672 100.047 332.219 100.484 331.875 101.047C331.547 101.594 331.305 102.242 331.148 102.992C331.008 103.742 330.938 104.562 330.938 105.453ZM363.773 108.195H357.047C357.047 106.82 357.141 105.609 357.328 104.562C357.531 103.5 357.875 102.547 358.359 101.703C358.844 100.859 359.5 100.078 360.328 99.3594C361.062 98.75 361.695 98.1641 362.227 97.6016C362.758 97.0391 363.164 96.4688 363.445 95.8906C363.727 95.3125 363.867 94.6953 363.867 94.0391C363.867 93.2266 363.75 92.5625 363.516 92.0469C363.297 91.5312 362.961 91.1484 362.508 90.8984C362.07 90.6328 361.516 90.5 360.844 90.5C360.297 90.5 359.781 90.6328 359.297 90.8984C358.828 91.1641 358.445 91.5781 358.148 92.1406C357.852 92.6875 357.688 93.4141 357.656 94.3203H349.711C349.758 91.9922 350.273 90.1016 351.258 88.6484C352.258 87.1797 353.586 86.1094 355.242 85.4375C356.914 84.75 358.781 84.4062 360.844 84.4062C363.125 84.4062 365.086 84.7578 366.727 85.4609C368.367 86.1641 369.625 87.2109 370.5 88.6016C371.375 89.9766 371.812 91.6719 371.812 93.6875C371.812 95.0312 371.555 96.2031 371.039 97.2031C370.539 98.1875 369.859 99.1094 369 99.9688C368.156 100.812 367.211 101.719 366.164 102.688C365.258 103.484 364.641 104.297 364.312 105.125C363.984 105.938 363.805 106.961 363.773 108.195ZM356.086 115.32C356.086 114.195 356.492 113.258 357.305 112.508C358.117 111.742 359.172 111.359 360.469 111.359C361.766 111.359 362.82 111.742 363.633 112.508C364.445 113.258 364.852 114.195 364.852 115.32C364.852 116.445 364.445 117.391 363.633 118.156C362.82 118.906 361.766 119.281 360.469 119.281C359.172 119.281 358.117 118.906 357.305 118.156C356.492 117.391 356.086 116.445 356.086 115.32Z" fill="black"/>
<path d="M1134 0H1348C1356.28 0 1363 6.71573 1363 15V148C1363 156.284 1356.28 163 1348 163H1134V0Z" fill="#11C8D3"/>
<path d="M1260.62 78.8847C1263.81 78.8847 1266.93 79.805 1269.59 81.5293C1272.25 83.2536 1274.32 85.7044 1275.54 88.5718C1276.76 91.4391 1277.08 94.5943 1276.46 97.6383C1275.84 100.682 1274.3 103.478 1272.04 105.673C1269.78 107.868 1266.9 109.362 1263.77 109.968C1260.63 110.573 1257.39 110.262 1254.43 109.075C1251.48 107.887 1248.96 105.876 1247.18 103.295C1245.41 100.714 1244.46 97.6806 1244.46 94.5769C1244.46 90.4151 1246.16 86.4237 1249.19 83.4808C1252.22 80.538 1256.33 78.8847 1260.62 78.8847ZM1260.62 73.6539C1256.36 73.6539 1252.19 74.881 1248.65 77.1801C1245.11 79.4791 1242.35 82.7469 1240.72 86.57C1239.09 90.3932 1238.66 94.6001 1239.49 98.6588C1240.32 102.717 1242.37 106.446 1245.39 109.372C1248.4 112.298 1252.24 114.291 1256.41 115.098C1260.59 115.905 1264.92 115.491 1268.86 113.907C1272.79 112.324 1276.16 109.642 1278.52 106.201C1280.89 102.76 1282.15 98.7151 1282.15 94.5769C1282.15 89.0278 1279.88 83.706 1275.85 79.7821C1271.81 75.8583 1266.33 73.6539 1260.62 73.6539Z" fill="white"/>
<path d="M1274.08 47.5H1220.23C1218.8 47.5 1217.43 48.0511 1216.42 49.0321C1215.41 50.013 1214.85 51.3435 1214.85 52.7307V105.038C1214.85 106.426 1215.41 107.756 1216.42 108.737C1217.43 109.718 1218.8 110.269 1220.23 110.269H1231V105.038H1220.23V68.423H1279.46V52.7307C1279.46 51.3435 1278.89 50.013 1277.88 49.0321C1276.87 48.0511 1275.5 47.5 1274.08 47.5ZM1220.23 63.1922V52.7307H1274.08V63.1922H1220.23Z" fill="white"/>
<path d="M1255.23 86.731V102.423L1268.69 94.5771L1255.23 86.731Z" fill="white"/>
</svg>
