<svg width="1363" height="163" viewBox="0 0 1363 163" fill="none" xmlns="http://www.w3.org/2000/svg">
<path d="M0 15C0 6.71573 6.71573 0 15 0H37V163H15C6.71573 163 0 156.284 0 148V15Z" fill="#424242"/>
<rect width="1097" height="163" transform="translate(37)" fill="#F0F0F0"/>
<path d="M101.906 53.9219L94.3945 51.2383V48.0859L104.602 52.375V54.6367L101.906 53.9219ZM94.3945 56.1719L101.918 53.4297L104.602 52.7852V55.0352L94.3945 59.3242V56.1719ZM126.422 52.082V58.8438C126.156 59.1641 125.746 59.5117 125.191 59.8867C124.637 60.2539 123.922 60.5703 123.047 60.8359C122.172 61.1016 121.113 61.2344 119.871 61.2344C118.77 61.2344 117.766 61.0547 116.859 60.6953C115.953 60.3281 115.172 59.793 114.516 59.0898C113.867 58.3867 113.367 57.5273 113.016 56.5117C112.664 55.4883 112.488 54.3203 112.488 53.0078V51.9414C112.488 50.6289 112.656 49.4609 112.992 48.4375C113.336 47.4141 113.824 46.5508 114.457 45.8477C115.09 45.1445 115.844 44.6094 116.719 44.2422C117.594 43.875 118.566 43.6914 119.637 43.6914C121.121 43.6914 122.34 43.9336 123.293 44.418C124.246 44.8945 124.973 45.5586 125.473 46.4102C125.98 47.2539 126.293 48.2227 126.41 49.3164H123C122.914 48.7383 122.75 48.2344 122.508 47.8047C122.266 47.375 121.918 47.0391 121.465 46.7969C121.02 46.5547 120.441 46.4336 119.73 46.4336C119.145 46.4336 118.621 46.5547 118.16 46.7969C117.707 47.0312 117.324 47.3789 117.012 47.8398C116.699 48.3008 116.461 48.8711 116.297 49.5508C116.133 50.2305 116.051 51.0195 116.051 51.918V53.0078C116.051 53.8984 116.137 54.6875 116.309 55.375C116.48 56.0547 116.734 56.6289 117.07 57.0977C117.414 57.5586 117.836 57.9062 118.336 58.1406C118.836 58.375 119.418 58.4922 120.082 58.4922C120.637 58.4922 121.098 58.4453 121.465 58.3516C121.84 58.2578 122.141 58.1445 122.367 58.0117C122.602 57.8711 122.781 57.7383 122.906 57.6133V54.5898H119.695V52.082H126.422ZM136.547 57.9648V48.3203H139.922V61H136.746L136.547 57.9648ZM136.922 55.3633L137.918 55.3398C137.918 56.1836 137.82 56.9688 137.625 57.6953C137.43 58.4141 137.137 59.0391 136.746 59.5703C136.355 60.0938 135.863 60.5039 135.27 60.8008C134.676 61.0898 133.977 61.2344 133.172 61.2344C132.555 61.2344 131.984 61.1484 131.461 60.9766C130.945 60.7969 130.5 60.5195 130.125 60.1445C129.758 59.7617 129.469 59.2734 129.258 58.6797C129.055 58.0781 128.953 57.3555 128.953 56.5117V48.3203H132.328V56.5352C132.328 56.9102 132.371 57.2266 132.457 57.4844C132.551 57.7422 132.68 57.9531 132.844 58.1172C133.008 58.2812 133.199 58.3984 133.418 58.4688C133.645 58.5391 133.895 58.5742 134.168 58.5742C134.863 58.5742 135.41 58.4336 135.809 58.1523C136.215 57.8711 136.5 57.4883 136.664 57.0039C136.836 56.5117 136.922 55.9648 136.922 55.3633ZM149.344 58.1406V52.4922C149.344 52.0859 149.277 51.7383 149.145 51.4492C149.012 51.1523 148.805 50.9219 148.523 50.7578C148.25 50.5938 147.895 50.5117 147.457 50.5117C147.082 50.5117 146.758 50.5781 146.484 50.7109C146.211 50.8359 146 51.0195 145.852 51.2617C145.703 51.4961 145.629 51.7734 145.629 52.0938H142.254C142.254 51.5547 142.379 51.043 142.629 50.5586C142.879 50.0742 143.242 49.6484 143.719 49.2812C144.195 48.9062 144.762 48.6133 145.418 48.4023C146.082 48.1914 146.824 48.0859 147.645 48.0859C148.629 48.0859 149.504 48.25 150.27 48.5781C151.035 48.9062 151.637 49.3984 152.074 50.0547C152.52 50.7109 152.742 51.5312 152.742 52.5156V57.9414C152.742 58.6367 152.785 59.207 152.871 59.6523C152.957 60.0898 153.082 60.4727 153.246 60.8008V61H149.836C149.672 60.6562 149.547 60.2266 149.461 59.7109C149.383 59.1875 149.344 58.6641 149.344 58.1406ZM149.789 53.2773L149.812 55.1875H147.926C147.48 55.1875 147.094 55.2383 146.766 55.3398C146.438 55.4414 146.168 55.5859 145.957 55.7734C145.746 55.9531 145.59 56.1641 145.488 56.4062C145.395 56.6484 145.348 56.9141 145.348 57.2031C145.348 57.4922 145.414 57.7539 145.547 57.9883C145.68 58.2148 145.871 58.3945 146.121 58.5273C146.371 58.6523 146.664 58.7148 147 58.7148C147.508 58.7148 147.949 58.6133 148.324 58.4102C148.699 58.207 148.988 57.957 149.191 57.6602C149.402 57.3633 149.512 57.082 149.52 56.8164L150.41 58.2461C150.285 58.5664 150.113 58.8984 149.895 59.2422C149.684 59.5859 149.414 59.9102 149.086 60.2148C148.758 60.5117 148.363 60.7578 147.902 60.9531C147.441 61.1406 146.895 61.2344 146.262 61.2344C145.457 61.2344 144.727 61.0742 144.07 60.7539C143.422 60.4258 142.906 59.9766 142.523 59.4062C142.148 58.8281 141.961 58.1719 141.961 57.4375C141.961 56.7734 142.086 56.1836 142.336 55.668C142.586 55.1523 142.953 54.7188 143.438 54.3672C143.93 54.0078 144.543 53.7383 145.277 53.5586C146.012 53.3711 146.863 53.2773 147.832 53.2773H149.789ZM158.719 51.0859V61H155.344V48.3203H158.52L158.719 51.0859ZM162.539 48.2383L162.48 51.3672C162.316 51.3438 162.117 51.3242 161.883 51.3086C161.656 51.2852 161.449 51.2734 161.262 51.2734C160.785 51.2734 160.371 51.3359 160.02 51.4609C159.676 51.5781 159.387 51.7539 159.152 51.9883C158.926 52.2227 158.754 52.5078 158.637 52.8438C158.527 53.1797 158.465 53.5625 158.449 53.9922L157.77 53.7812C157.77 52.9609 157.852 52.207 158.016 51.5195C158.18 50.8242 158.418 50.2188 158.73 49.7031C159.051 49.1875 159.441 48.7891 159.902 48.5078C160.363 48.2266 160.891 48.0859 161.484 48.0859C161.672 48.0859 161.863 48.1016 162.059 48.1328C162.254 48.1562 162.414 48.1914 162.539 48.2383ZM171.387 58.2344V43H174.785V61H171.727L171.387 58.2344ZM163.371 54.8125V54.5664C163.371 53.5977 163.48 52.7188 163.699 51.9297C163.918 51.1328 164.238 50.4492 164.66 49.8789C165.082 49.3086 165.602 48.8672 166.219 48.5547C166.836 48.2422 167.539 48.0859 168.328 48.0859C169.07 48.0859 169.719 48.2422 170.273 48.5547C170.836 48.8672 171.312 49.3125 171.703 49.8906C172.102 50.4609 172.422 51.1367 172.664 51.918C172.906 52.6914 173.082 53.5391 173.191 54.4609V55C173.082 55.8828 172.906 56.7031 172.664 57.4609C172.422 58.2188 172.102 58.8828 171.703 59.4531C171.312 60.0156 170.836 60.4531 170.273 60.7656C169.711 61.0781 169.055 61.2344 168.305 61.2344C167.516 61.2344 166.812 61.0742 166.195 60.7539C165.586 60.4336 165.07 59.9844 164.648 59.4062C164.234 58.8281 163.918 58.1484 163.699 57.3672C163.48 56.5859 163.371 55.7344 163.371 54.8125ZM166.746 54.5664V54.8125C166.746 55.3359 166.785 55.8242 166.863 56.2773C166.949 56.7305 167.086 57.1328 167.273 57.4844C167.469 57.8281 167.719 58.0977 168.023 58.293C168.336 58.4805 168.715 58.5742 169.16 58.5742C169.738 58.5742 170.215 58.4453 170.59 58.1875C170.965 57.9219 171.25 57.5586 171.445 57.0977C171.648 56.6367 171.766 56.1055 171.797 55.5039V53.9688C171.773 53.4766 171.703 53.0352 171.586 52.6445C171.477 52.2461 171.312 51.9062 171.094 51.625C170.883 51.3438 170.617 51.125 170.297 50.9688C169.984 50.8125 169.613 50.7344 169.184 50.7344C168.746 50.7344 168.371 50.8359 168.059 51.0391C167.746 51.2344 167.492 51.5039 167.297 51.8477C167.109 52.1914 166.969 52.5977 166.875 53.0664C166.789 53.5273 166.746 54.0273 166.746 54.5664ZM180.984 48.3203V61H177.598V48.3203H180.984ZM177.387 45.0156C177.387 44.5234 177.559 44.1172 177.902 43.7969C178.246 43.4766 178.707 43.3164 179.285 43.3164C179.855 43.3164 180.312 43.4766 180.656 43.7969C181.008 44.1172 181.184 44.5234 181.184 45.0156C181.184 45.5078 181.008 45.9141 180.656 46.2344C180.312 46.5547 179.855 46.7148 179.285 46.7148C178.707 46.7148 178.246 46.5547 177.902 46.2344C177.559 45.9141 177.387 45.5078 177.387 45.0156ZM190.617 58.1406V52.4922C190.617 52.0859 190.551 51.7383 190.418 51.4492C190.285 51.1523 190.078 50.9219 189.797 50.7578C189.523 50.5938 189.168 50.5117 188.73 50.5117C188.355 50.5117 188.031 50.5781 187.758 50.7109C187.484 50.8359 187.273 51.0195 187.125 51.2617C186.977 51.4961 186.902 51.7734 186.902 52.0938H183.527C183.527 51.5547 183.652 51.043 183.902 50.5586C184.152 50.0742 184.516 49.6484 184.992 49.2812C185.469 48.9062 186.035 48.6133 186.691 48.4023C187.355 48.1914 188.098 48.0859 188.918 48.0859C189.902 48.0859 190.777 48.25 191.543 48.5781C192.309 48.9062 192.91 49.3984 193.348 50.0547C193.793 50.7109 194.016 51.5312 194.016 52.5156V57.9414C194.016 58.6367 194.059 59.207 194.145 59.6523C194.23 60.0898 194.355 60.4727 194.52 60.8008V61H191.109C190.945 60.6562 190.82 60.2266 190.734 59.7109C190.656 59.1875 190.617 58.6641 190.617 58.1406ZM191.062 53.2773L191.086 55.1875H189.199C188.754 55.1875 188.367 55.2383 188.039 55.3398C187.711 55.4414 187.441 55.5859 187.23 55.7734C187.02 55.9531 186.863 56.1641 186.762 56.4062C186.668 56.6484 186.621 56.9141 186.621 57.2031C186.621 57.4922 186.688 57.7539 186.82 57.9883C186.953 58.2148 187.145 58.3945 187.395 58.5273C187.645 58.6523 187.938 58.7148 188.273 58.7148C188.781 58.7148 189.223 58.6133 189.598 58.4102C189.973 58.207 190.262 57.957 190.465 57.6602C190.676 57.3633 190.785 57.082 190.793 56.8164L191.684 58.2461C191.559 58.5664 191.387 58.8984 191.168 59.2422C190.957 59.5859 190.688 59.9102 190.359 60.2148C190.031 60.5117 189.637 60.7578 189.176 60.9531C188.715 61.1406 188.168 61.2344 187.535 61.2344C186.73 61.2344 186 61.0742 185.344 60.7539C184.695 60.4258 184.18 59.9766 183.797 59.4062C183.422 58.8281 183.234 58.1719 183.234 57.4375C183.234 56.7734 183.359 56.1836 183.609 55.668C183.859 55.1523 184.227 54.7188 184.711 54.3672C185.203 54.0078 185.816 53.7383 186.551 53.5586C187.285 53.3711 188.137 53.2773 189.105 53.2773H191.062ZM199.922 51.0273V61H196.547V48.3203H199.711L199.922 51.0273ZM199.43 54.2148H198.516C198.516 53.2773 198.637 52.4336 198.879 51.6836C199.121 50.9258 199.461 50.2812 199.898 49.75C200.336 49.2109 200.855 48.8008 201.457 48.5195C202.066 48.2305 202.746 48.0859 203.496 48.0859C204.09 48.0859 204.633 48.1719 205.125 48.3438C205.617 48.5156 206.039 48.7891 206.391 49.1641C206.75 49.5391 207.023 50.0352 207.211 50.6523C207.406 51.2695 207.504 52.0234 207.504 52.9141V61H204.105V52.9023C204.105 52.3398 204.027 51.9023 203.871 51.5898C203.715 51.2773 203.484 51.0586 203.18 50.9336C202.883 50.8008 202.516 50.7344 202.078 50.7344C201.625 50.7344 201.23 50.8242 200.895 51.0039C200.566 51.1836 200.293 51.4336 200.074 51.7539C199.863 52.0664 199.703 52.4336 199.594 52.8555C199.484 53.2773 199.43 53.7305 199.43 54.2148ZM229.781 52.082V58.8438C229.516 59.1641 229.105 59.5117 228.551 59.8867C227.996 60.2539 227.281 60.5703 226.406 60.8359C225.531 61.1016 224.473 61.2344 223.23 61.2344C222.129 61.2344 221.125 61.0547 220.219 60.6953C219.312 60.3281 218.531 59.793 217.875 59.0898C217.227 58.3867 216.727 57.5273 216.375 56.5117C216.023 55.4883 215.848 54.3203 215.848 53.0078V51.9414C215.848 50.6289 216.016 49.4609 216.352 48.4375C216.695 47.4141 217.184 46.5508 217.816 45.8477C218.449 45.1445 219.203 44.6094 220.078 44.2422C220.953 43.875 221.926 43.6914 222.996 43.6914C224.48 43.6914 225.699 43.9336 226.652 44.418C227.605 44.8945 228.332 45.5586 228.832 46.4102C229.34 47.2539 229.652 48.2227 229.77 49.3164H226.359C226.273 48.7383 226.109 48.2344 225.867 47.8047C225.625 47.375 225.277 47.0391 224.824 46.7969C224.379 46.5547 223.801 46.4336 223.09 46.4336C222.504 46.4336 221.98 46.5547 221.52 46.7969C221.066 47.0312 220.684 47.3789 220.371 47.8398C220.059 48.3008 219.82 48.8711 219.656 49.5508C219.492 50.2305 219.41 51.0195 219.41 51.918V53.0078C219.41 53.8984 219.496 54.6875 219.668 55.375C219.84 56.0547 220.094 56.6289 220.43 57.0977C220.773 57.5586 221.195 57.9062 221.695 58.1406C222.195 58.375 222.777 58.4922 223.441 58.4922C223.996 58.4922 224.457 58.4453 224.824 58.3516C225.199 58.2578 225.5 58.1445 225.727 58.0117C225.961 57.8711 226.141 57.7383 226.266 57.6133V54.5898H223.055V52.082H229.781ZM235.781 51.0859V61H232.406V48.3203H235.582L235.781 51.0859ZM239.602 48.2383L239.543 51.3672C239.379 51.3438 239.18 51.3242 238.945 51.3086C238.719 51.2852 238.512 51.2734 238.324 51.2734C237.848 51.2734 237.434 51.3359 237.082 51.4609C236.738 51.5781 236.449 51.7539 236.215 51.9883C235.988 52.2227 235.816 52.5078 235.699 52.8438C235.59 53.1797 235.527 53.5625 235.512 53.9922L234.832 53.7812C234.832 52.9609 234.914 52.207 235.078 51.5195C235.242 50.8242 235.48 50.2188 235.793 49.7031C236.113 49.1875 236.504 48.7891 236.965 48.5078C237.426 48.2266 237.953 48.0859 238.547 48.0859C238.734 48.0859 238.926 48.1016 239.121 48.1328C239.316 48.1562 239.477 48.1914 239.602 48.2383ZM240.305 54.7891V54.543C240.305 53.6133 240.438 52.7578 240.703 51.9766C240.969 51.1875 241.355 50.5039 241.863 49.9258C242.371 49.3477 242.996 48.8984 243.738 48.5781C244.48 48.25 245.332 48.0859 246.293 48.0859C247.254 48.0859 248.109 48.25 248.859 48.5781C249.609 48.8984 250.238 49.3477 250.746 49.9258C251.262 50.5039 251.652 51.1875 251.918 51.9766C252.184 52.7578 252.316 53.6133 252.316 54.543V54.7891C252.316 55.7109 252.184 56.5664 251.918 57.3555C251.652 58.1367 251.262 58.8203 250.746 59.4062C250.238 59.9844 249.613 60.4336 248.871 60.7539C248.129 61.0742 247.277 61.2344 246.316 61.2344C245.355 61.2344 244.5 61.0742 243.75 60.7539C243.008 60.4336 242.379 59.9844 241.863 59.4062C241.355 58.8203 240.969 58.1367 240.703 57.3555C240.438 56.5664 240.305 55.7109 240.305 54.7891ZM243.68 54.543V54.7891C243.68 55.3203 243.727 55.8164 243.82 56.2773C243.914 56.7383 244.062 57.1445 244.266 57.4961C244.477 57.8398 244.75 58.1094 245.086 58.3047C245.422 58.5 245.832 58.5977 246.316 58.5977C246.785 58.5977 247.188 58.5 247.523 58.3047C247.859 58.1094 248.129 57.8398 248.332 57.4961C248.535 57.1445 248.684 56.7383 248.777 56.2773C248.879 55.8164 248.93 55.3203 248.93 54.7891V54.543C248.93 54.0273 248.879 53.543 248.777 53.0898C248.684 52.6289 248.531 52.2227 248.32 51.8711C248.117 51.5117 247.848 51.2305 247.512 51.0273C247.176 50.8242 246.77 50.7227 246.293 50.7227C245.816 50.7227 245.41 50.8242 245.074 51.0273C244.746 51.2305 244.477 51.5117 244.266 51.8711C244.062 52.2227 243.914 52.6289 243.82 53.0898C243.727 53.543 243.68 54.0273 243.68 54.543ZM258.516 58.5391L261.328 48.3203H264.855L260.578 61H258.445L258.516 58.5391ZM256.582 48.3203L259.406 58.5508L259.465 61H257.32L253.043 48.3203H256.582ZM272.039 61.2344C271.055 61.2344 270.172 61.0781 269.391 60.7656C268.609 60.4453 267.945 60.0039 267.398 59.4414C266.859 58.8789 266.445 58.2266 266.156 57.4844C265.867 56.7344 265.723 55.9375 265.723 55.0938V54.625C265.723 53.6641 265.859 52.7852 266.133 51.9883C266.406 51.1914 266.797 50.5 267.305 49.9141C267.82 49.3281 268.445 48.8789 269.18 48.5664C269.914 48.2461 270.742 48.0859 271.664 48.0859C272.562 48.0859 273.359 48.2344 274.055 48.5312C274.75 48.8281 275.332 49.25 275.801 49.7969C276.277 50.3438 276.637 51 276.879 51.7656C277.121 52.5234 277.242 53.3672 277.242 54.2969V55.7031H267.164V53.4531H273.926V53.1953C273.926 52.7266 273.84 52.3086 273.668 51.9414C273.504 51.5664 273.254 51.2695 272.918 51.0508C272.582 50.832 272.152 50.7227 271.629 50.7227C271.184 50.7227 270.801 50.8203 270.48 51.0156C270.16 51.2109 269.898 51.4844 269.695 51.8359C269.5 52.1875 269.352 52.6016 269.25 53.0781C269.156 53.5469 269.109 54.0625 269.109 54.625V55.0938C269.109 55.6016 269.18 56.0703 269.32 56.5C269.469 56.9297 269.676 57.3008 269.941 57.6133C270.215 57.9258 270.543 58.168 270.926 58.3398C271.316 58.5117 271.758 58.5977 272.25 58.5977C272.859 58.5977 273.426 58.4805 273.949 58.2461C274.48 58.0039 274.938 57.6406 275.32 57.1562L276.961 58.9375C276.695 59.3203 276.332 59.6875 275.871 60.0391C275.418 60.3906 274.871 60.6797 274.23 60.9062C273.59 61.125 272.859 61.2344 272.039 61.2344Z" fill="#888888"/>
<path d="M110.062 92.0469L101.742 119H92.9062L105.445 84.875H111.047L110.062 92.0469ZM116.953 119L108.609 92.0469L107.531 84.875H113.203L125.812 119H116.953ZM116.625 106.273V112.625H99.1172V106.273H116.625ZM135.258 115.906L142.055 84.875H146.109L148.312 87.5234L141.07 119H136.594L135.258 115.906ZM133.453 84.875L139.195 116.141L137.719 119H132.539L125.297 84.875H133.453ZM152.039 115.977L157.734 84.875H165.867L158.625 119H153.469L152.039 115.977ZM149.039 84.875L156 116.094L154.594 119H150.117L142.711 87.4766L145.008 84.875H149.039ZM186.68 109.93C186.68 109.398 186.602 108.922 186.445 108.5C186.289 108.062 186 107.656 185.578 107.281C185.156 106.906 184.547 106.531 183.75 106.156C182.969 105.766 181.938 105.359 180.656 104.938C179.156 104.438 177.711 103.875 176.32 103.25C174.93 102.609 173.688 101.867 172.594 101.023C171.5 100.164 170.633 99.1641 169.992 98.0234C169.352 96.8672 169.031 95.5234 169.031 93.9922C169.031 92.5234 169.359 91.2031 170.016 90.0312C170.672 88.8438 171.586 87.8359 172.758 87.0078C173.945 86.1641 175.336 85.5234 176.93 85.0859C178.523 84.6328 180.266 84.4062 182.156 84.4062C184.656 84.4062 186.859 84.8438 188.766 85.7188C190.688 86.5781 192.188 87.8047 193.266 89.3984C194.359 90.9766 194.906 92.8438 194.906 95H186.727C186.727 94.1406 186.547 93.3828 186.188 92.7266C185.844 92.0703 185.32 91.5547 184.617 91.1797C183.914 90.8047 183.031 90.6172 181.969 90.6172C180.938 90.6172 180.07 90.7734 179.367 91.0859C178.664 91.3984 178.133 91.8203 177.773 92.3516C177.414 92.8672 177.234 93.4375 177.234 94.0625C177.234 94.5781 177.375 95.0469 177.656 95.4688C177.953 95.875 178.367 96.2578 178.898 96.6172C179.445 96.9766 180.102 97.3203 180.867 97.6484C181.648 97.9766 182.523 98.2969 183.492 98.6094C185.305 99.1875 186.914 99.8359 188.32 100.555C189.742 101.258 190.938 102.062 191.906 102.969C192.891 103.859 193.633 104.875 194.133 106.016C194.648 107.156 194.906 108.445 194.906 109.883C194.906 111.414 194.609 112.773 194.016 113.961C193.422 115.148 192.57 116.156 191.461 116.984C190.352 117.797 189.023 118.414 187.477 118.836C185.93 119.258 184.203 119.469 182.297 119.469C180.547 119.469 178.82 119.25 177.117 118.812C175.43 118.359 173.898 117.672 172.523 116.75C171.148 115.812 170.047 114.617 169.219 113.164C168.406 111.695 168 109.953 168 107.938H176.25C176.25 108.938 176.383 109.781 176.648 110.469C176.914 111.156 177.305 111.711 177.82 112.133C178.336 112.539 178.969 112.836 179.719 113.023C180.469 113.195 181.328 113.281 182.297 113.281C183.344 113.281 184.188 113.133 184.828 112.836C185.469 112.523 185.938 112.117 186.234 111.617C186.531 111.102 186.68 110.539 186.68 109.93ZM222.188 119H214.617L214.664 112.672H222.188C223.75 112.672 225.07 112.297 226.148 111.547C227.242 110.797 228.07 109.68 228.633 108.195C229.211 106.695 229.5 104.852 229.5 102.664V101.188C229.5 99.5469 229.336 98.1094 229.008 96.875C228.695 95.625 228.227 94.5859 227.602 93.7578C226.977 92.9141 226.195 92.2812 225.258 91.8594C224.336 91.4375 223.273 91.2266 222.07 91.2266H214.477V84.875H222.07C224.383 84.875 226.5 85.2734 228.422 86.0703C230.359 86.8516 232.031 87.9766 233.438 89.4453C234.859 90.8984 235.953 92.625 236.719 94.625C237.5 96.6094 237.891 98.8125 237.891 101.234V102.664C237.891 105.07 237.5 107.273 236.719 109.273C235.953 111.273 234.867 113 233.461 114.453C232.055 115.906 230.391 117.031 228.469 117.828C226.562 118.609 224.469 119 222.188 119ZM219.328 84.875V119H211.102V84.875H219.328ZM254.086 119.469C252.023 119.469 250.18 119.148 248.555 118.508C246.93 117.852 245.555 116.953 244.43 115.812C243.32 114.672 242.469 113.359 241.875 111.875C241.297 110.391 241.008 108.82 241.008 107.164V106.273C241.008 104.414 241.266 102.695 241.781 101.117C242.297 99.5234 243.062 98.1328 244.078 96.9453C245.094 95.7578 246.367 94.8359 247.898 94.1797C249.43 93.5078 251.211 93.1719 253.242 93.1719C255.039 93.1719 256.648 93.4609 258.07 94.0391C259.492 94.6172 260.695 95.4453 261.68 96.5234C262.68 97.6016 263.438 98.9062 263.953 100.438C264.484 101.969 264.75 103.688 264.75 105.594V108.805H244.031V103.859H257.039V103.25C257.055 102.406 256.906 101.688 256.594 101.094C256.297 100.5 255.859 100.047 255.281 99.7344C254.703 99.4219 254 99.2656 253.172 99.2656C252.312 99.2656 251.602 99.4531 251.039 99.8281C250.492 100.203 250.062 100.719 249.75 101.375C249.453 102.016 249.242 102.758 249.117 103.602C248.992 104.445 248.93 105.336 248.93 106.273V107.164C248.93 108.102 249.055 108.953 249.305 109.719C249.57 110.484 249.945 111.141 250.43 111.688C250.93 112.219 251.523 112.633 252.211 112.93C252.914 113.227 253.711 113.375 254.602 113.375C255.68 113.375 256.742 113.172 257.789 112.766C258.836 112.359 259.734 111.688 260.484 110.75L264.07 115.016C263.555 115.75 262.82 116.461 261.867 117.148C260.93 117.836 259.805 118.398 258.492 118.836C257.18 119.258 255.711 119.469 254.086 119.469ZM275.93 98.5156V128.75H268.031V93.6406H275.391L275.93 98.5156ZM291.492 106.016V106.508C291.492 108.352 291.281 110.062 290.859 111.641C290.438 113.219 289.812 114.594 288.984 115.766C288.156 116.938 287.125 117.852 285.891 118.508C284.672 119.148 283.258 119.469 281.648 119.469C280.133 119.469 278.828 119.133 277.734 118.461C276.641 117.789 275.727 116.859 274.992 115.672C274.258 114.484 273.664 113.125 273.211 111.594C272.758 110.062 272.398 108.445 272.133 106.742V106.109C272.398 104.281 272.758 102.586 273.211 101.023C273.664 99.4453 274.258 98.0703 274.992 96.8984C275.727 95.7266 276.633 94.8125 277.711 94.1562C278.805 93.5 280.109 93.1719 281.625 93.1719C283.234 93.1719 284.648 93.4766 285.867 94.0859C287.102 94.6953 288.133 95.5703 288.961 96.7109C289.805 97.8359 290.438 99.1875 290.859 100.766C291.281 102.344 291.492 104.094 291.492 106.016ZM283.594 106.508V106.016C283.594 105.031 283.523 104.133 283.383 103.32C283.242 102.492 283.016 101.773 282.703 101.164C282.406 100.555 282.008 100.086 281.508 99.7578C281.008 99.4297 280.391 99.2656 279.656 99.2656C278.812 99.2656 278.102 99.3984 277.523 99.6641C276.961 99.9141 276.508 100.305 276.164 100.836C275.836 101.352 275.602 102 275.461 102.781C275.336 103.547 275.281 104.445 275.297 105.477V107.398C275.266 108.586 275.383 109.633 275.648 110.539C275.914 111.43 276.375 112.125 277.031 112.625C277.688 113.125 278.578 113.375 279.703 113.375C280.453 113.375 281.078 113.203 281.578 112.859C282.078 112.5 282.477 112.008 282.773 111.383C283.07 110.742 283.281 110.008 283.406 109.18C283.531 108.352 283.594 107.461 283.594 106.508ZM303.352 83V119H295.43V83H303.352ZM307.242 106.578V106.086C307.242 104.227 307.508 102.516 308.039 100.953C308.57 99.375 309.352 98.0078 310.383 96.8516C311.414 95.6953 312.688 94.7969 314.203 94.1562C315.719 93.5 317.469 93.1719 319.453 93.1719C321.453 93.1719 323.211 93.5 324.727 94.1562C326.258 94.7969 327.539 95.6953 328.57 96.8516C329.602 98.0078 330.383 99.375 330.914 100.953C331.445 102.516 331.711 104.227 331.711 106.086V106.578C331.711 108.422 331.445 110.133 330.914 111.711C330.383 113.273 329.602 114.641 328.57 115.812C327.539 116.969 326.266 117.867 324.75 118.508C323.234 119.148 321.484 119.469 319.5 119.469C317.516 119.469 315.758 119.148 314.227 118.508C312.695 117.867 311.414 116.969 310.383 115.812C309.352 114.641 308.57 113.273 308.039 111.711C307.508 110.133 307.242 108.422 307.242 106.578ZM315.141 106.086V106.578C315.141 107.531 315.211 108.422 315.352 109.25C315.492 110.078 315.727 110.805 316.055 111.43C316.383 112.039 316.828 112.516 317.391 112.859C317.953 113.203 318.656 113.375 319.5 113.375C320.328 113.375 321.016 113.203 321.562 112.859C322.125 112.516 322.57 112.039 322.898 111.43C323.227 110.805 323.461 110.078 323.602 109.25C323.742 108.422 323.812 107.531 323.812 106.578V106.086C323.812 105.164 323.742 104.297 323.602 103.484C323.461 102.656 323.227 101.93 322.898 101.305C322.57 100.664 322.125 100.164 321.562 99.8047C321 99.4453 320.297 99.2656 319.453 99.2656C318.625 99.2656 317.93 99.4453 317.367 99.8047C316.82 100.164 316.383 100.664 316.055 101.305C315.727 101.93 315.492 102.656 315.352 103.484C315.211 104.297 315.141 105.164 315.141 106.086ZM342.633 116.023L349.195 93.6406H357.68L347.484 122.773C347.266 123.414 346.977 124.102 346.617 124.836C346.258 125.586 345.766 126.297 345.141 126.969C344.516 127.641 343.711 128.188 342.727 128.609C341.758 129.031 340.555 129.242 339.117 129.242C338.352 129.242 337.789 129.203 337.43 129.125C337.086 129.062 336.555 128.945 335.836 128.773V123.125C336.039 123.125 336.211 123.125 336.352 123.125C336.508 123.125 336.68 123.125 336.867 123.125C337.711 123.125 338.383 123.039 338.883 122.867C339.398 122.695 339.789 122.445 340.055 122.117C340.336 121.789 340.555 121.391 340.711 120.922L342.633 116.023ZM340.969 93.6406L345.961 111.383L346.828 119.75H341.531L332.508 93.6406H340.969ZM367.711 99.0078V119H359.812V93.6406H367.219L367.711 99.0078ZM366.75 105.453L364.945 105.5C364.945 103.719 365.156 102.078 365.578 100.578C366 99.0781 366.625 97.7734 367.453 96.6641C368.281 95.5547 369.297 94.6953 370.5 94.0859C371.719 93.4766 373.125 93.1719 374.719 93.1719C375.828 93.1719 376.836 93.3438 377.742 93.6875C378.648 94.0156 379.43 94.5391 380.086 95.2578C380.742 95.9609 381.242 96.8828 381.586 98.0234C381.945 99.1484 382.125 100.5 382.125 102.078V119H374.227V103.086C374.227 102.008 374.102 101.195 373.852 100.648C373.617 100.102 373.273 99.7344 372.82 99.5469C372.367 99.3594 371.812 99.2656 371.156 99.2656C370.469 99.2656 369.852 99.4219 369.305 99.7344C368.758 100.047 368.289 100.484 367.898 101.047C367.523 101.594 367.234 102.242 367.031 102.992C366.844 103.742 366.75 104.562 366.75 105.453ZM381.234 105.453L379.031 105.5C379.031 103.719 379.227 102.078 379.617 100.578C380.023 99.0781 380.625 97.7734 381.422 96.6641C382.234 95.5547 383.242 94.6953 384.445 94.0859C385.648 93.4766 387.047 93.1719 388.641 93.1719C389.797 93.1719 390.859 93.3438 391.828 93.6875C392.797 94.0312 393.633 94.5859 394.336 95.3516C395.039 96.1172 395.586 97.1328 395.977 98.3984C396.367 99.6484 396.562 101.195 396.562 103.039V119H388.641V103.039C388.641 101.992 388.516 101.203 388.266 100.672C388.031 100.125 387.688 99.7578 387.234 99.5703C386.781 99.3672 386.242 99.2656 385.617 99.2656C384.867 99.2656 384.219 99.4219 383.672 99.7344C383.125 100.047 382.664 100.484 382.289 101.047C381.93 101.594 381.664 102.242 381.492 102.992C381.32 103.742 381.234 104.562 381.234 105.453ZM413.367 119.469C411.305 119.469 409.461 119.148 407.836 118.508C406.211 117.852 404.836 116.953 403.711 115.812C402.602 114.672 401.75 113.359 401.156 111.875C400.578 110.391 400.289 108.82 400.289 107.164V106.273C400.289 104.414 400.547 102.695 401.062 101.117C401.578 99.5234 402.344 98.1328 403.359 96.9453C404.375 95.7578 405.648 94.8359 407.18 94.1797C408.711 93.5078 410.492 93.1719 412.523 93.1719C414.32 93.1719 415.93 93.4609 417.352 94.0391C418.773 94.6172 419.977 95.4453 420.961 96.5234C421.961 97.6016 422.719 98.9062 423.234 100.438C423.766 101.969 424.031 103.688 424.031 105.594V108.805H403.312V103.859H416.32V103.25C416.336 102.406 416.188 101.688 415.875 101.094C415.578 100.5 415.141 100.047 414.562 99.7344C413.984 99.4219 413.281 99.2656 412.453 99.2656C411.594 99.2656 410.883 99.4531 410.32 99.8281C409.773 100.203 409.344 100.719 409.031 101.375C408.734 102.016 408.523 102.758 408.398 103.602C408.273 104.445 408.211 105.336 408.211 106.273V107.164C408.211 108.102 408.336 108.953 408.586 109.719C408.852 110.484 409.227 111.141 409.711 111.688C410.211 112.219 410.805 112.633 411.492 112.93C412.195 113.227 412.992 113.375 413.883 113.375C414.961 113.375 416.023 113.172 417.07 112.766C418.117 112.359 419.016 111.688 419.766 110.75L423.352 115.016C422.836 115.75 422.102 116.461 421.148 117.148C420.211 117.836 419.086 118.398 417.773 118.836C416.461 119.258 414.992 119.469 413.367 119.469ZM435 99.0547V119H427.102V93.6406H434.508L435 99.0547ZM434.062 105.453L432.211 105.5C432.211 103.562 432.445 101.836 432.914 100.32C433.383 98.7891 434.047 97.4922 434.906 96.4297C435.766 95.3672 436.789 94.5625 437.977 94.0156C439.18 93.4531 440.516 93.1719 441.984 93.1719C443.156 93.1719 444.227 93.3438 445.195 93.6875C446.18 94.0312 447.023 94.5859 447.727 95.3516C448.445 96.1172 448.992 97.1328 449.367 98.3984C449.758 99.6484 449.953 101.195 449.953 103.039V119H442.008V103.016C442.008 102 441.867 101.227 441.586 100.695C441.305 100.148 440.898 99.7734 440.367 99.5703C439.836 99.3672 439.188 99.2656 438.422 99.2656C437.609 99.2656 436.922 99.4219 436.359 99.7344C435.797 100.047 435.344 100.484 435 101.047C434.672 101.594 434.43 102.242 434.273 102.992C434.133 103.742 434.062 104.562 434.062 105.453ZM467.695 93.6406V99.125H452.414V93.6406H467.695ZM455.625 87.3359H463.523V110.727C463.523 111.398 463.602 111.922 463.758 112.297C463.914 112.656 464.18 112.914 464.555 113.07C464.945 113.211 465.461 113.281 466.102 113.281C466.555 113.281 466.93 113.273 467.227 113.258C467.523 113.227 467.805 113.188 468.07 113.141V118.789C467.398 119.008 466.695 119.172 465.961 119.281C465.227 119.406 464.445 119.469 463.617 119.469C461.93 119.469 460.484 119.203 459.281 118.672C458.094 118.141 457.188 117.305 456.562 116.164C455.938 115.023 455.625 113.539 455.625 111.711V87.3359Z" fill="black"/>
<path d="M1134 0H1348C1356.28 0 1363 6.71573 1363 15V148C1363 156.284 1356.28 163 1348 163H1134V0Z" fill="#11C8D3"/>
<path d="M1212.5 117.5L1212.5 45.5L1284.5 45.5L1284.5 117.5L1212.5 117.5Z" fill="white" fill-opacity="0.01"/>
<path d="M1221.5 81.5125L1221.5 108.5L1275.5 108.5L1275.5 81.5" stroke="white" stroke-width="7.24" stroke-linecap="round" stroke-linejoin="round"/>
<path d="M1262 68L1248.5 54.5L1235 68" stroke="white" stroke-width="7.24" stroke-linecap="round" stroke-linejoin="round"/>
<path d="M1248.49 93.5L1248.49 54.5" stroke="white" stroke-width="7.24" stroke-linecap="round" stroke-linejoin="round"/>
</svg>
